<?xml version="1.0" encoding="UTF-8"?>
<!DOCTYPE svg PUBLIC "-//W3C//DTD SVG 1.1//EN" "http://www.w3.org/Graphics/SVG/1.1/DTD/svg11.dtd">
<svg xmlns="http://www.w3.org/2000/svg" version="1.1" width="214px" height="214px" style="shape-rendering:geometricPrecision; text-rendering:geometricPrecision; image-rendering:optimizeQuality; fill-rule:evenodd; clip-rule:evenodd" xmlns:xlink="http://www.w3.org/1999/xlink">
<g><path style="opacity:0.008" fill="#4fd790" d="M 40.5,33.5 C 31.1667,34.8333 21.8333,34.8333 12.5,33.5C 13.8734,33.6567 15.2068,33.49 16.5,33C 13.8333,32.6667 11.1667,32.3333 8.5,32C 20.1667,31.3333 31.8333,31.3333 43.5,32C 34.8333,32.3333 26.1667,32.6667 17.5,33C 25.1594,33.4997 32.8261,33.6664 40.5,33.5 Z"/></g>
<g><path style="opacity:0.008" fill="#4ed993" d="M 151.5,33.5 C 151.5,33.8333 151.5,34.1667 151.5,34.5C 141.985,34.8269 132.652,34.4936 123.5,33.5C 125.199,33.6602 126.866,33.4935 128.5,33C 125.167,32.6667 121.833,32.3333 118.5,32C 131.833,31.3333 145.167,31.3333 158.5,32C 148.833,32.3333 139.167,32.6667 129.5,33C 136.826,33.4997 144.159,33.6663 151.5,33.5 Z"/></g>
<g><path style="opacity:0.004" fill="#43d092" d="M 165.5,31.5 C 166.833,32.1667 166.833,32.1667 165.5,31.5 Z"/></g>
<g><path style="opacity:0.004" fill="#4fd492" d="M 163.5,33.5 C 162.127,33.6567 160.793,33.49 159.5,33C 161.066,32.235 162.399,32.4017 163.5,33.5 Z"/></g>
<g><path style="opacity:0.004" fill="#44cf92" d="M 6.5,35.5 C 4.66298,35.3605 4.32964,34.6939 5.5,33.5C 6.29755,33.9569 6.63088,34.6236 6.5,35.5 Z"/></g>
<g><path style="opacity:0.004" fill="#3ebf87" d="M 111.5,33.5 C 112.833,34.1667 112.833,34.1667 111.5,33.5 Z"/></g>
<g><path style="opacity:0.008" fill="#5ad896" d="M 165.5,32.5 C 165.611,33.1174 165.944,33.6174 166.5,34C 165.251,34.7401 164.251,34.5735 163.5,33.5C 164.167,33.1667 164.833,32.8333 165.5,32.5 Z"/></g>
<g><path style="opacity:0.975" fill="#72d9a1" d="M 123.5,33.5 C 132.652,34.4936 141.985,34.8269 151.5,34.5C 144.027,35.2904 133.36,35.9571 119.5,36.5C 117.642,38.8831 116.308,41.5498 115.5,44.5C 114.69,47.3437 113.356,50.0103 111.5,52.5C 110.272,53.3065 109.272,54.3065 108.5,55.5C 108.167,55.5 107.833,55.5 107.5,55.5C 108.547,52.4037 109.88,49.4037 111.5,46.5C 111.167,45.8333 110.833,45.1667 110.5,44.5C 112.079,41.0061 113.913,37.6728 116,34.5C 116.333,34.8333 116.667,35.1667 117,35.5C 118.789,33.771 120.956,33.1043 123.5,33.5 Z"/></g>
<g><path style="opacity:0.004" fill="#43d193" d="M 171.5,34.5 C 172.833,35.1667 172.833,35.1667 171.5,34.5 Z"/></g>
<g><path style="opacity:0.753" fill="#66d791" d="M 151.5,34.5 C 151.5,34.1667 151.5,33.8333 151.5,33.5C 159.132,33.9083 166.466,35.575 173.5,38.5C 173.842,39.3382 174.508,39.6716 175.5,39.5C 175.5,39.8333 175.5,40.1667 175.5,40.5C 174.833,40.5 174.167,40.5 173.5,40.5C 170.833,40.1667 168.167,39.8333 165.5,39.5C 163.852,38.0735 161.852,37.2401 159.5,37C 154.177,36.5006 148.844,36.334 143.5,36.5C 135.5,36.5 127.5,36.5 119.5,36.5C 133.36,35.9571 144.027,35.2904 151.5,34.5 Z"/></g>
<g><path style="opacity:0.996" fill="#4cde7f" d="M 143.5,36.5 C 148.844,36.334 154.177,36.5006 159.5,37C 161.852,37.2401 163.852,38.0735 165.5,39.5C 167.446,41.5097 167.446,43.1764 165.5,44.5C 166.603,44.9976 167.603,45.3309 168.5,45.5C 167.667,45.8333 166.833,46.1667 166,46.5C 158.533,47.415 151.033,47.7483 143.5,47.5C 143.082,46.7784 142.416,46.2784 141.5,46C 147.441,45.9794 153.108,44.9794 158.5,43C 157.391,42.3623 156.225,41.8623 155,41.5C 152.138,41.6381 149.305,41.6381 146.5,41.5C 144.587,42.373 142.753,43.373 141,44.5C 138,44.1667 135,43.8333 132,43.5C 130.307,45.0267 128.473,46.3601 126.5,47.5C 125.692,47.1924 125.025,46.6924 124.5,46C 125.711,44.8869 125.711,43.7202 124.5,42.5C 122.955,41.5481 121.288,41.2148 119.5,41.5C 119.5,43.5 119.5,45.5 119.5,47.5C 118.5,47.5 117.5,47.5 116.5,47.5C 117.152,44.0319 118.485,40.8653 120.5,38C 128.344,37.829 136.011,37.329 143.5,36.5 Z"/></g>
<g><path style="opacity:0.008" fill="#66d999" d="M 173.5,38.5 C 174.601,37.4017 175.934,37.235 177.5,38C 178.451,38.7175 178.617,39.5509 178,40.5C 177.329,39.7476 176.496,39.4142 175.5,39.5C 175.158,38.6618 174.492,38.3284 173.5,38.5 Z"/></g>
<g><path style="opacity:0.004" fill="#3fca92" d="M 186.5,40.5 C 186.897,39.475 187.563,39.3083 188.5,40C 187.906,40.4643 187.239,40.631 186.5,40.5 Z"/></g>
<g><path style="opacity:0.906" fill="#6fd99c" d="M 173.5,40.5 C 174.167,40.5 174.833,40.5 175.5,40.5C 177.996,41.5804 180.33,42.9138 182.5,44.5C 184.36,45.9387 186.027,47.6053 187.5,49.5C 186.508,49.3284 185.842,49.6618 185.5,50.5C 185.167,50.5 184.833,50.5 184.5,50.5C 183.578,48.1837 181.911,46.517 179.5,45.5C 177.091,44.2993 175.091,42.6326 173.5,40.5 Z"/></g>
<g><path style="opacity:0.004" fill="#3ecb99" d="M 52.5,41.5 C 53.8333,42.1667 53.8333,42.1667 52.5,41.5 Z"/></g>
<g><path style="opacity:0.004" fill="#3bbe8b" d="M 107.5,41.5 C 108.833,42.1667 108.833,42.1667 107.5,41.5 Z"/></g>
<g><path style="opacity:0.004" fill="#40cc94" d="M 186.5,41.5 C 187.833,42.1667 187.833,42.1667 186.5,41.5 Z"/></g>
<g><path style="opacity:0.004" fill="#6bd8a2" d="M 182.5,44.5 C 183.386,43.2241 184.386,43.2241 185.5,44.5C 184.767,45.087 183.767,45.087 182.5,44.5 Z"/></g>
<g><path style="opacity:0.996" fill="#4bdc85" d="M 119.5,36.5 C 127.5,36.5 135.5,36.5 143.5,36.5C 136.011,37.329 128.344,37.829 120.5,38C 118.485,40.8653 117.152,44.0319 116.5,47.5C 117.5,47.5 118.5,47.5 119.5,47.5C 119.5,45.5 119.5,43.5 119.5,41.5C 121.288,41.2148 122.955,41.5481 124.5,42.5C 125.711,43.7202 125.711,44.8869 124.5,46C 125.025,46.6924 125.692,47.1924 126.5,47.5C 128.473,46.3601 130.307,45.0267 132,43.5C 135,43.8333 138,44.1667 141,44.5C 142.753,43.373 144.587,42.373 146.5,41.5C 149.305,41.6381 152.138,41.6381 155,41.5C 156.225,41.8623 157.391,42.3623 158.5,43C 153.108,44.9794 147.441,45.9794 141.5,46C 142.416,46.2784 143.082,46.7784 143.5,47.5C 137.559,48.4128 131.559,48.7461 125.5,48.5C 124.02,55.273 121.687,55.773 118.5,50C 117.552,49.5172 116.552,49.3505 115.5,49.5C 115.5,47.8333 115.5,46.1667 115.5,44.5C 116.308,41.5498 117.642,38.8831 119.5,36.5 Z"/></g>
<g><path style="opacity:0.086" fill="#6ad69b" d="M 12.5,33.5 C 21.8333,34.8333 31.1667,34.8333 40.5,33.5C 45.0147,32.8912 48.0147,35.0579 49.5,40C 48.0474,41.7131 48.2141,43.2131 50,44.5C 50.3333,44.1667 50.6667,43.8333 51,43.5C 51.4922,44.549 51.3256,45.549 50.5,46.5C 51.1831,49.4614 52.0164,49.7947 53,47.5C 53.8466,49.1932 54.6799,50.8599 55.5,52.5C 55.5,52.8333 55.5,53.1667 55.5,53.5C 54.8333,53.5 54.5,53.8333 54.5,54.5C 53.0755,52.9689 52.4088,53.3023 52.5,55.5C 51.5,54.1667 50.5,52.8333 49.5,51.5C 48.11,45.9663 45.7767,40.9663 42.5,36.5C 42.1667,36.5 41.8333,36.5 41.5,36.5C 32.0089,35.342 22.3422,35.1754 12.5,36C 11.2004,37.5788 11.5337,38.7455 13.5,39.5C 14.1084,42.3267 15.1084,44.9933 16.5,47.5C 15.8843,48.2022 15.8843,49.2022 16.5,50.5C 16.1667,50.5 15.8333,50.5 15.5,50.5C 15.1667,49.1667 14.8333,49.1667 14.5,50.5C 11.5972,45.6981 8.93049,40.6981 6.5,35.5C 8.11371,33.9254 10.1137,33.2587 12.5,33.5 Z"/></g>
<g><path style="opacity:0.996" fill="#4cde80" d="M 41.5,36.5 C 41.8333,36.5 42.1667,36.5 42.5,36.5C 42.5172,38.5648 42.8505,40.5648 43.5,42.5C 42.6769,46.8583 40.5102,47.1916 37,43.5C 34.7334,44.2707 32.9,45.6041 31.5,47.5C 30.8165,47.1373 30.1499,46.8039 29.5,46.5C 26.9928,46.1654 24.8261,45.1654 23,43.5C 21.2111,45.229 19.0444,45.8957 16.5,45.5C 16.539,42.911 15.539,40.911 13.5,39.5C 13.5,38.5 13.5,37.5 13.5,36.5C 22.8333,36.5 32.1667,36.5 41.5,36.5 Z"/></g>
<g><path style="opacity:1" fill="#59d58a" d="M 41.5,36.5 C 32.1667,36.5 22.8333,36.5 13.5,36.5C 13.5,37.5 13.5,38.5 13.5,39.5C 11.5337,38.7455 11.2004,37.5788 12.5,36C 22.3422,35.1754 32.0089,35.342 41.5,36.5 Z"/></g>
<g><path style="opacity:1" fill="#90cfb1" d="M 8.5,35.5 C 9.25057,34.4265 10.2506,34.2599 11.5,35C 10.6477,36.7284 9.64767,36.895 8.5,35.5 Z"/></g>
<g><path style="opacity:0.996" fill="#49db86" d="M 165.5,39.5 C 168.167,39.8333 170.833,40.1667 173.5,40.5C 175.091,42.6326 177.091,44.2993 179.5,45.5C 181.123,48.2153 181.79,51.2153 181.5,54.5C 179.876,54.6399 178.71,53.9733 178,52.5C 176.594,53.6682 175.428,53.3348 174.5,51.5C 173.252,52.0402 172.085,52.7069 171,53.5C 168,53.1667 165,52.8333 162,52.5C 161.667,53.1667 161.333,53.8333 161,54.5C 160.209,53.255 159.709,51.9217 159.5,50.5C 159.217,49.7109 158.717,49.0442 158,48.5C 153.667,48.8333 149.333,49.1667 145,49.5C 144.283,48.9558 143.783,48.2891 143.5,47.5C 151.033,47.7483 158.533,47.415 166,46.5C 166.833,46.1667 167.667,45.8333 168.5,45.5C 167.603,45.3309 166.603,44.9976 165.5,44.5C 167.446,43.1764 167.446,41.5097 165.5,39.5 Z"/></g>
<g><path style="opacity:0.996" fill="#47db88" d="M 43.5,42.5 C 45.2132,43.6354 45.8799,45.302 45.5,47.5C 40.8575,47.7424 40.1908,49.5757 43.5,53C 41.6178,54.4788 39.4511,55.3121 37,55.5C 35.0145,55.4313 33.5145,54.7647 32.5,53.5C 31.0098,51.419 30.0098,49.0857 29.5,46.5C 30.1499,46.8039 30.8165,47.1373 31.5,47.5C 32.9,45.6041 34.7334,44.2707 37,43.5C 40.5102,47.1916 42.6769,46.8583 43.5,42.5 Z"/></g>
<g><path style="opacity:0.004" fill="#39bd8e" d="M 104.5,47.5 C 105.833,48.1667 105.833,48.1667 104.5,47.5 Z"/></g>
<g><path style="opacity:0.004" fill="#3dbe89" d="M 8.5,48.5 C 9.83333,49.1667 9.83333,49.1667 8.5,48.5 Z"/></g>
<g><path style="opacity:0.996" fill="#47da8a" d="M 115.5,44.5 C 115.5,46.1667 115.5,47.8333 115.5,49.5C 116.552,49.3505 117.552,49.5172 118.5,50C 121.687,55.773 124.02,55.273 125.5,48.5C 131.559,48.7461 137.559,48.4128 143.5,47.5C 143.783,48.2891 144.283,48.9558 145,49.5C 149.333,49.1667 153.667,48.8333 158,48.5C 158.717,49.0442 159.217,49.7109 159.5,50.5C 157.621,51.3414 155.621,51.6747 153.5,51.5C 148.489,51.6659 143.489,51.4993 138.5,51C 139.696,50.3457 139.696,49.8457 138.5,49.5C 137.252,50.0402 136.085,50.7069 135,51.5C 133.75,50.4267 132.416,50.4267 131,51.5C 130.05,50.9777 129.216,50.311 128.5,49.5C 127.611,51.007 126.611,52.3403 125.5,53.5C 123.891,62.2385 121.225,62.5719 117.5,54.5C 115.929,55.9754 114.595,57.642 113.5,59.5C 112.947,63.4557 112.114,63.4557 111,59.5C 110.444,57.1152 110.61,54.7819 111.5,52.5C 113.356,50.0103 114.69,47.3437 115.5,44.5 Z"/></g>
<g><path style="opacity:0.004" fill="#58d7a4" d="M 191.5,49.5 C 192.833,50.1667 192.833,50.1667 191.5,49.5 Z"/></g>
<g><path style="opacity:0.996" fill="#49d989" d="M 13.5,39.5 C 15.539,40.911 16.539,42.911 16.5,45.5C 19.0444,45.8957 21.2111,45.229 23,43.5C 24.8261,45.1654 26.9928,46.1654 29.5,46.5C 30.0098,49.0857 31.0098,51.419 32.5,53.5C 29.5,53.1667 28.1667,54.5 28.5,57.5C 28.5979,59.5529 27.9313,61.2196 26.5,62.5C 25.2068,58.8798 23.2068,55.8798 20.5,53.5C 19.3434,51.322 18.0101,49.322 16.5,47.5C 15.1084,44.9933 14.1084,42.3267 13.5,39.5 Z"/></g>
<g><path style="opacity:0.996" fill="#45d98d" d="M 179.5,45.5 C 181.911,46.517 183.578,48.1837 184.5,50.5C 184.351,51.552 184.517,52.552 185,53.5C 189.214,55.6134 191.714,58.9467 192.5,63.5C 191.167,63.5 189.833,63.5 188.5,63.5C 186.958,61.6097 185.458,59.6097 184,57.5C 181.302,58.2798 178.969,59.6131 177,61.5C 176.74,59.3825 175.74,57.7158 174,56.5C 169.675,56.7281 165.009,56.7281 160,56.5C 158,59.1667 156,59.1667 154,56.5C 150.293,57.0888 146.793,57.0888 143.5,56.5C 148.681,55.8335 154.015,55.1668 159.5,54.5C 157.406,53.4824 155.406,52.4824 153.5,51.5C 155.621,51.6747 157.621,51.3414 159.5,50.5C 159.709,51.9217 160.209,53.255 161,54.5C 161.333,53.8333 161.667,53.1667 162,52.5C 165,52.8333 168,53.1667 171,53.5C 172.085,52.7069 173.252,52.0402 174.5,51.5C 175.428,53.3348 176.594,53.6682 178,52.5C 178.71,53.9733 179.876,54.6399 181.5,54.5C 181.79,51.2153 181.123,48.2153 179.5,45.5 Z"/></g>
<g><path style="opacity:0.004" fill="#41cd95" d="M 12.5,51.5 C 13.8333,52.1667 13.8333,52.1667 12.5,51.5 Z"/></g>
<g><path style="opacity:0.996" fill="#44da8d" d="M 153.5,51.5 C 155.406,52.4824 157.406,53.4824 159.5,54.5C 154.015,55.1668 148.681,55.8335 143.5,56.5C 143.631,57.2389 143.464,57.9056 143,58.5C 139.877,56.1792 136.877,56.5125 134,59.5C 134.263,58.0494 134.096,56.7161 133.5,55.5C 132.11,57.2029 130.61,57.8696 129,57.5C 128.943,55.0898 127.776,53.7565 125.5,53.5C 126.611,52.3403 127.611,51.007 128.5,49.5C 129.216,50.311 130.05,50.9777 131,51.5C 132.416,50.4267 133.75,50.4267 135,51.5C 136.085,50.7069 137.252,50.0402 138.5,49.5C 139.696,49.8457 139.696,50.3457 138.5,51C 143.489,51.4993 148.489,51.6659 153.5,51.5 Z"/></g>
<g><path style="opacity:0.996" fill="#48d88b" d="M 42.5,36.5 C 45.7767,40.9663 48.11,45.9663 49.5,51.5C 49.2606,53.4672 49.5939,55.3005 50.5,57C 50.0019,58.1581 49.1685,58.9915 48,59.5C 42.2467,59.2818 36.4133,58.2818 30.5,56.5C 29.8165,56.8627 29.1499,57.1961 28.5,57.5C 28.1667,54.5 29.5,53.1667 32.5,53.5C 33.5145,54.7647 35.0145,55.4313 37,55.5C 39.4511,55.3121 41.6178,54.4788 43.5,53C 40.1908,49.5757 40.8575,47.7424 45.5,47.5C 45.8799,45.302 45.2132,43.6354 43.5,42.5C 42.8505,40.5648 42.5172,38.5648 42.5,36.5 Z"/></g>
<g><path style="opacity:0.996" fill="#42d792" d="M 125.5,53.5 C 127.776,53.7565 128.943,55.0898 129,57.5C 130.61,57.8696 132.11,57.2029 133.5,55.5C 134.096,56.7161 134.263,58.0494 134,59.5C 136.877,56.5125 139.877,56.1792 143,58.5C 143.464,57.9056 143.631,57.2389 143.5,56.5C 146.793,57.0888 150.293,57.0888 154,56.5C 156,59.1667 158,59.1667 160,56.5C 165.009,56.7281 169.675,56.7281 174,56.5C 175.74,57.7158 176.74,59.3825 177,61.5C 178.969,59.6131 181.302,58.2798 184,57.5C 185.458,59.6097 186.958,61.6097 188.5,63.5C 186.508,63.6715 184.842,63.0049 183.5,61.5C 181.724,62.3148 181.057,63.4815 181.5,65C 179.925,64.621 178.425,64.7877 177,65.5C 175.981,64.3128 174.814,63.3128 173.5,62.5C 171.694,64.6077 169.527,66.2744 167,67.5C 165.599,65.8078 163.766,65.1412 161.5,65.5C 159.442,64.0669 157.108,63.4003 154.5,63.5C 149.787,61.7756 144.787,60.7756 139.5,60.5C 136.274,60.3485 133.607,61.3485 131.5,63.5C 129.571,62.9937 127.905,61.9937 126.5,60.5C 125.571,61.6888 125.238,63.0222 125.5,64.5C 123.139,64.3259 120.806,63.9926 118.5,63.5C 118.819,61.2495 118.319,59.2495 117,57.5C 116.085,58.3279 115.419,59.3279 115,60.5C 114.617,59.944 114.117,59.6107 113.5,59.5C 114.595,57.642 115.929,55.9754 117.5,54.5C 121.225,62.5719 123.891,62.2385 125.5,53.5 Z"/></g>
<g><path style="opacity:0.996" fill="#41d692" d="M 49.5,51.5 C 50.5,52.8333 51.5,54.1667 52.5,55.5C 53.3532,59.3726 54.3532,63.206 55.5,67C 53.5,67.3333 51.5,67.6667 49.5,68C 52.0432,68.1397 54.3766,68.8063 56.5,70C 53.4529,69.6198 50.4529,69.6198 47.5,70C 46.8878,68.6967 46.5545,67.5301 46.5,66.5C 44.9984,67.0831 43.6651,67.9164 42.5,69C 42.8333,69.3333 43.1667,69.6667 43.5,70C 38.6055,70.4795 34.2722,69.1462 30.5,66C 31.3366,64.9887 31.67,63.8221 31.5,62.5C 29.602,63.0965 27.9354,63.0965 26.5,62.5C 27.9313,61.2196 28.5979,59.5529 28.5,57.5C 29.1499,57.1961 29.8165,56.8627 30.5,56.5C 36.4133,58.2818 42.2467,59.2818 48,59.5C 49.1685,58.9915 50.0019,58.1581 50.5,57C 49.5939,55.3005 49.2606,53.4672 49.5,51.5 Z"/></g>
<g><path style="opacity:1" fill="#5ecba6" d="M 55.5,52.5 C 57.3042,58.4382 59.8042,64.4382 63,70.5C 66.2808,70.3799 67.1142,72.0466 65.5,75.5C 66.1831,78.4614 67.0164,78.7947 68,76.5C 69.3717,77.9101 70.205,79.5767 70.5,81.5C 70.5,81.8333 70.5,82.1667 70.5,82.5C 69.8333,82.5 69.5,82.8333 69.5,83.5C 68.6043,82.4937 67.9377,82.4937 67.5,83.5C 66.8333,82.8333 66.1667,82.1667 65.5,81.5C 64.0928,76.3448 61.4262,72.0114 57.5,68.5C 57.2059,63.5881 55.5392,59.2548 52.5,55.5C 52.4088,53.3023 53.0755,52.9689 54.5,54.5C 55.1667,54.5 55.5,54.1667 55.5,53.5C 55.5,53.1667 55.5,52.8333 55.5,52.5 Z"/></g>
<g><path style="opacity:0.996" fill="#3fd694" d="M 111.5,52.5 C 110.61,54.7819 110.444,57.1152 111,59.5C 112.114,63.4557 112.947,63.4557 113.5,59.5C 114.117,59.6107 114.617,59.944 115,60.5C 115.419,59.3279 116.085,58.3279 117,57.5C 118.319,59.2495 118.819,61.2495 118.5,63.5C 120.806,63.9926 123.139,64.3259 125.5,64.5C 125.238,63.0222 125.571,61.6888 126.5,60.5C 127.905,61.9937 129.571,62.9937 131.5,63.5C 131.232,68.3013 129.232,69.3013 125.5,66.5C 123.143,67.0951 120.977,68.0951 119,69.5C 117.107,68.6734 114.941,68.6734 112.5,69.5C 111.702,67.9223 111.202,66.2556 111,64.5C 109.795,63.9288 108.628,63.2621 107.5,62.5C 108.309,60.9291 108.643,59.2624 108.5,57.5C 108.5,56.8333 108.5,56.1667 108.5,55.5C 109.272,54.3065 110.272,53.3065 111.5,52.5 Z"/></g>
<g><path style="opacity:0.004" fill="#36c29b" d="M 96.5,60.5 C 97.8333,61.1667 97.8333,61.1667 96.5,60.5 Z"/></g>
<g><path style="opacity:0.537" fill="#62cfa0" d="M 187.5,49.5 C 188.833,49.8333 190.167,50.1667 191.5,50.5C 192.684,51.6879 192.684,52.8545 191.5,54C 192.552,55.1192 193.719,55.6192 195,55.5C 196.366,57.3703 197.533,59.3703 198.5,61.5C 198.167,62.1667 197.833,62.8333 197.5,63.5C 198.456,65.0754 199.123,66.742 199.5,68.5C 197.797,67.3398 197.131,68.0065 197.5,70.5C 197.038,66.4894 195.538,62.8228 193,59.5C 190.519,56.379 188.019,53.379 185.5,50.5C 185.842,49.6618 186.508,49.3284 187.5,49.5 Z"/></g>
<g><path style="opacity:0.004" fill="#3abd8c" d="M 15.5,62.5 C 16.8333,63.1667 16.8333,63.1667 15.5,62.5 Z"/></g>
<g><path style="opacity:0.008" fill="#61cca1" d="M 16.5,47.5 C 18.0101,49.322 19.3434,51.322 20.5,53.5C 22.9157,58.6665 25.5824,63.6665 28.5,68.5C 28.3915,70.5138 29.0582,72.1805 30.5,73.5C 30.8333,74.1667 31.1667,74.8333 31.5,75.5C 30.6618,75.8417 30.3284,76.5084 30.5,77.5C 26.296,74.2747 23.1294,69.6081 21,63.5C 17.8718,59.7153 15.7052,55.382 14.5,50.5C 14.8333,50.5 15.1667,50.5 15.5,50.5C 15.8333,51.8333 16.1667,51.8333 16.5,50.5C 15.8843,49.2022 15.8843,48.2022 16.5,47.5 Z"/></g>
<g><path style="opacity:0.004" fill="#36c59e" d="M 96.5,62.5 C 97.8333,63.1667 97.8333,63.1667 96.5,62.5 Z"/></g>
<g><path style="opacity:0.004" fill="#44cca5" d="M 62.5,63.5 C 63.8333,64.1667 63.8333,64.1667 62.5,63.5 Z"/></g>
<g><path style="opacity:0.004" fill="#36c49f" d="M 96.5,65.5 C 95.8333,64.1667 95.8333,64.1667 96.5,65.5 Z"/></g>
<g><path style="opacity:0.004" fill="#36c7a2" d="M 96.5,65.5 C 97.8333,66.1667 97.8333,66.1667 96.5,65.5 Z"/></g>
<g><path style="opacity:0.012" fill="#59caa0" d="M 154.5,63.5 C 157.108,63.4003 159.442,64.0669 161.5,65.5C 162.853,66.5261 163.853,67.8595 164.5,69.5C 164.5,69.8333 164.5,70.1667 164.5,70.5C 164.5,70.8333 164.5,71.1667 164.5,71.5C 163.395,70.3995 162.062,69.7329 160.5,69.5C 159.833,68.1667 159.167,68.1667 158.5,69.5C 151.269,67.8439 144.269,68.1772 137.5,70.5C 137.167,67.8333 136.833,67.8333 136.5,70.5C 135.833,70.5 135.5,70.8333 135.5,71.5C 134.662,71.8417 134.328,72.5084 134.5,73.5C 134.167,73.5 133.833,73.5 133.5,73.5C 133.5,72.8333 133.5,72.1667 133.5,71.5C 133.709,70.0783 134.209,68.745 135,67.5C 135.77,66.4019 136.603,66.4019 137.5,67.5C 138.167,67.5 138.5,67.1667 138.5,66.5C 137.833,65.8333 137.167,65.1667 136.5,64.5C 142.409,63.5447 148.409,63.2114 154.5,63.5 Z M 142.5,66.5 C 142.56,65.9569 142.893,65.6236 143.5,65.5C 147.967,66.1136 152.3,66.7803 156.5,67.5C 151.737,67.7744 147.07,67.441 142.5,66.5 Z"/></g>
<g><path style="opacity:0.004" fill="#3dc999" d="M 19.5,66.5 C 20.8333,67.1667 20.8333,67.1667 19.5,66.5 Z"/></g>
<g><path style="opacity:0.996" fill="#3fd298" d="M 108.5,57.5 C 108.643,59.2624 108.309,60.9291 107.5,62.5C 108.628,63.2621 109.795,63.9288 111,64.5C 111.202,66.2556 111.702,67.9223 112.5,69.5C 114.941,68.6734 117.107,68.6734 119,69.5C 120.977,68.0951 123.143,67.0951 125.5,66.5C 129.232,69.3013 131.232,68.3013 131.5,63.5C 133.607,61.3485 136.274,60.3485 139.5,60.5C 144.787,60.7756 149.787,61.7756 154.5,63.5C 148.409,63.2114 142.409,63.5447 136.5,64.5C 135.761,64.369 135.094,64.5357 134.5,65C 132.533,68.2702 130.199,71.1035 127.5,73.5C 126.07,73.4208 124.736,73.7542 123.5,74.5C 118.769,72.4703 113.935,72.1369 109,73.5C 108.055,73.9054 107.388,74.572 107,75.5C 105.175,73.5204 104.341,71.1871 104.5,68.5C 104.477,64.2361 105.81,60.5695 108.5,57.5 Z"/></g>
<g><path style="opacity:0.996" fill="#3ed399" d="M 184.5,50.5 C 184.833,50.5 185.167,50.5 185.5,50.5C 188.019,53.379 190.519,56.379 193,59.5C 195.538,62.8228 197.038,66.4894 197.5,70.5C 197.5,70.8333 197.5,71.1667 197.5,71.5C 197.5,73.8333 197.5,76.1667 197.5,78.5C 194.996,78.1717 193.162,76.8384 192,74.5C 190.644,75.3802 189.144,75.7135 187.5,75.5C 187.763,72.2657 186.263,70.9324 183,71.5C 180.114,72.4425 177.28,72.4425 174.5,71.5C 173.452,72.548 172.452,73.548 171.5,74.5C 170.067,73.1667 168.733,71.6667 167.5,70C 166.552,69.5172 165.552,69.3505 164.5,69.5C 163.853,67.8595 162.853,66.5261 161.5,65.5C 163.766,65.1412 165.599,65.8078 167,67.5C 169.527,66.2744 171.694,64.6077 173.5,62.5C 174.814,63.3128 175.981,64.3128 177,65.5C 178.425,64.7877 179.925,64.621 181.5,65C 181.057,63.4815 181.724,62.3148 183.5,61.5C 184.842,63.0049 186.508,63.6715 188.5,63.5C 189.833,63.5 191.167,63.5 192.5,63.5C 191.714,58.9467 189.214,55.6134 185,53.5C 184.517,52.552 184.351,51.552 184.5,50.5 Z"/></g>
<g><path style="opacity:0.996" fill="#3fd398" d="M 20.5,53.5 C 23.2068,55.8798 25.2068,58.8798 26.5,62.5C 27.9354,63.0965 29.602,63.0965 31.5,62.5C 31.67,63.8221 31.3366,64.9887 30.5,66C 34.2722,69.1462 38.6055,70.4795 43.5,70C 43.1667,69.6667 42.8333,69.3333 42.5,69C 43.6651,67.9164 44.9984,67.0831 46.5,66.5C 46.5545,67.5301 46.8878,68.6967 47.5,70C 50.4529,69.6198 53.4529,69.6198 56.5,70C 54.3766,68.8063 52.0432,68.1397 49.5,68C 51.5,67.6667 53.5,67.3333 55.5,67C 54.3532,63.206 53.3532,59.3726 52.5,55.5C 55.5392,59.2548 57.2059,63.5881 57.5,68.5C 57.7022,70.9892 57.2022,73.3225 56,75.5C 53.2925,73.1498 50.1259,71.8165 46.5,71.5C 42.9786,72.6595 40.4786,74.3261 39,76.5C 38.0197,75.0186 36.853,73.6853 35.5,72.5C 34.5745,71.3595 33.7412,71.3595 33,72.5C 31.3057,71.3012 29.8057,69.9678 28.5,68.5C 25.5824,63.6665 22.9157,58.6665 20.5,53.5 Z"/></g>
<g><path style="opacity:0.004" fill="#40cda3" d="M 64.5,67.5 C 65.8333,68.1667 65.8333,68.1667 64.5,67.5 Z"/></g>
<g><path style="opacity:0.004" fill="#33b996" d="M 68.5,68.5 C 69.8333,69.1667 69.8333,69.1667 68.5,68.5 Z"/></g>
<g><path style="opacity:0.008" fill="#55caac" d="M 203.5,95.5 C 203.167,83.5 202.833,83.5 202.5,95.5C 202.167,95.5 201.833,95.5 201.5,95.5C 202.12,89.0738 201.453,83.0738 199.5,77.5C 199.741,75.1016 199.074,73.1016 197.5,71.5C 197.5,71.1667 197.5,70.8333 197.5,70.5C 197.131,68.0065 197.797,67.3398 199.5,68.5C 200.222,68.0825 200.722,67.4158 201,66.5C 201.496,68.0349 201.33,69.5349 200.5,71C 201.914,75.7267 202.748,80.56 203,85.5C 203.333,82.5 203.667,79.5 204,76.5C 204.5,77 205,77.5 205.5,78C 205.141,83.7754 204.474,89.6087 203.5,95.5 Z"/></g>
<g><path style="opacity:0.004" fill="#3cc495" d="M 17.5,69.5 C 18.8333,70.1667 18.8333,70.1667 17.5,69.5 Z"/></g>
<g><path style="opacity:0.004" fill="#37c9a3" d="M 140.5,69.5 C 141.833,70.1667 141.833,70.1667 140.5,69.5 Z"/></g>
<g><path style="opacity:0.012" fill="#5ecda6" d="M 158.5,69.5 C 159.167,69.5 159.833,69.5 160.5,69.5C 159.833,70.8333 159.167,70.8333 158.5,69.5 Z"/></g>
<g><path style="opacity:0.992" fill="#53cda2" d="M 107.5,55.5 C 107.833,55.5 108.167,55.5 108.5,55.5C 108.5,56.1667 108.5,56.8333 108.5,57.5C 105.81,60.5695 104.477,64.2361 104.5,68.5C 103.326,69.5137 102.66,70.847 102.5,72.5C 101.833,72.8333 101.167,73.1667 100.5,73.5C 101.349,70.9649 102.349,68.4649 103.5,66C 103.43,65.2352 103.097,64.7352 102.5,64.5C 101.388,61.6584 101.888,58.9917 104,56.5C 105.145,56.3809 106.312,56.0476 107.5,55.5 Z"/></g>
<g><path style="opacity:0.004" fill="#36c7a3" d="M 68.5,71.5 C 69.8333,72.1667 69.8333,72.1667 68.5,71.5 Z"/></g>
<g><path style="opacity:0.004" fill="#58d1aa" d="M 160.5,71.5 C 161.833,72.1667 161.833,72.1667 160.5,71.5 Z"/></g>
<g><path style="opacity:0.004" fill="#36c8a4" d="M 204.5,72.5 C 205.833,73.1667 205.833,73.1667 204.5,72.5 Z"/></g>
<g><path style="opacity:0.996" fill="#3acfa0" d="M 28.5,68.5 C 29.8057,69.9678 31.3057,71.3012 33,72.5C 33.7412,71.3595 34.5745,71.3595 35.5,72.5C 36.853,73.6853 38.0197,75.0186 39,76.5C 40.4786,74.3261 42.9786,72.6595 46.5,71.5C 50.1259,71.8165 53.2925,73.1498 56,75.5C 57.2022,73.3225 57.7022,70.9892 57.5,68.5C 61.4262,72.0114 64.0928,76.3448 65.5,81.5C 65.5,82.5 65.5,83.5 65.5,84.5C 64.448,84.6495 63.448,84.4828 62.5,84C 61.1667,83.3333 61.1667,82.6667 62.5,82C 60.1517,81.8898 58.6517,80.7231 58,78.5C 57.5172,79.448 57.3505,80.448 57.5,81.5C 53.2795,82.1924 49.6128,81.1924 46.5,78.5C 43.0874,79.9606 39.4207,79.7939 35.5,78C 34.2657,75.9279 32.5991,74.4279 30.5,73.5C 29.0582,72.1805 28.3915,70.5138 28.5,68.5 Z"/></g>
<g><path style="opacity:0.004" fill="#35c7a4" d="M 69.5,74.5 C 70.8333,75.1667 70.8333,75.1667 69.5,74.5 Z"/></g>
<g><path style="opacity:0.004" fill="#3bcfa3" d="M 163.5,74.5 C 162.833,75.1667 162.833,75.1667 163.5,74.5 Z"/></g>
<g><path style="opacity:0.996" fill="#39d09f" d="M 197.5,71.5 C 199.074,73.1016 199.741,75.1016 199.5,77.5C 199.5,78.1667 199.5,78.8333 199.5,79.5C 197.956,79.7031 196.622,80.3698 195.5,81.5C 193.844,79.9776 192.677,80.311 192,82.5C 189.225,79.1565 186.225,78.4898 183,80.5C 181.391,79.8534 179.891,79.02 178.5,78C 179.167,77.6667 179.833,77.3333 180.5,77C 177.172,75.9146 174.172,75.0813 171.5,74.5C 172.452,73.548 173.452,72.548 174.5,71.5C 177.28,72.4425 180.114,72.4425 183,71.5C 186.263,70.9324 187.763,72.2657 187.5,75.5C 189.144,75.7135 190.644,75.3802 192,74.5C 193.162,76.8384 194.996,78.1717 197.5,78.5C 197.5,76.1667 197.5,73.8333 197.5,71.5 Z"/></g>
<g><path style="opacity:0.996" fill="#37d0a1" d="M 104.5,68.5 C 104.341,71.1871 105.175,73.5204 107,75.5C 107.388,74.572 108.055,73.9054 109,73.5C 113.935,72.1369 118.769,72.4703 123.5,74.5C 124.736,73.7542 126.07,73.4208 127.5,73.5C 127.785,75.288 127.452,76.9547 126.5,78.5C 123.724,78.9298 121.39,80.0965 119.5,82C 120.187,83.1618 120.353,84.3284 120,85.5C 116.55,83.2853 113.55,80.6187 111,77.5C 106.865,80.1505 104.698,79.1505 104.5,74.5C 103.676,76.7476 102.676,76.9142 101.5,75C 102.252,74.3292 102.586,73.4959 102.5,72.5C 102.66,70.847 103.326,69.5137 104.5,68.5 Z"/></g>
<g><path style="opacity:0.004" fill="#30b89a" d="M 88.5,76.5 C 89.8333,77.1667 89.8333,77.1667 88.5,76.5 Z"/></g>
<g><path style="opacity:0.996" fill="#37cea5" d="M 164.5,70.5 C 164.5,70.1667 164.5,69.8333 164.5,69.5C 165.552,69.3505 166.552,69.5172 167.5,70C 168.733,71.6667 170.067,73.1667 171.5,74.5C 174.172,75.0813 177.172,75.9146 180.5,77C 179.833,77.3333 179.167,77.6667 178.5,78C 179.891,79.02 181.391,79.8534 183,80.5C 186.225,78.4898 189.225,79.1565 192,82.5C 192.677,80.311 193.844,79.9776 195.5,81.5C 196.622,80.3698 197.956,79.7031 199.5,79.5C 199.5,82.5 199.5,85.5 199.5,88.5C 196.998,87.2215 194.498,87.2215 192,88.5C 191.517,87.552 191.351,86.552 191.5,85.5C 187.751,85.6643 184.251,85.6643 181,85.5C 179.667,86.1667 178.333,86.8333 177,87.5C 175.989,86.9444 175.156,86.2778 174.5,85.5C 173.833,85.5 173.167,85.5 172.5,85.5C 172.664,82.8127 172.497,80.146 172,77.5C 169.91,74.5724 167.41,72.2391 164.5,70.5 Z"/></g>
<g><path style="opacity:1" fill="#54c6a9" d="M 31.5,75.5 C 32.8333,78.1667 34.1667,80.8333 35.5,83.5C 34.6618,83.8417 34.3284,84.5084 34.5,85.5C 33.8333,85.5 33.5,85.8333 33.5,86.5C 33.5,86.8333 33.5,87.1667 33.5,87.5C 30.7034,84.6061 29.7034,81.2728 30.5,77.5C 30.3284,76.5084 30.6618,75.8417 31.5,75.5 Z"/></g>
<g><path style="opacity:0.004" fill="#39c79e" d="M 25.5,78.5 C 26.8333,79.1667 26.8333,79.1667 25.5,78.5 Z"/></g>
<g><path style="opacity:0.004" fill="#31b799" d="M 76.5,79.5 C 77.8333,80.1667 77.8333,80.1667 76.5,79.5 Z"/></g>
<g><path style="opacity:0.996" fill="#35cda6" d="M 30.5,73.5 C 32.5991,74.4279 34.2657,75.9279 35.5,78C 39.4207,79.7939 43.0874,79.9606 46.5,78.5C 49.6128,81.1924 53.2795,82.1924 57.5,81.5C 57.3505,80.448 57.5172,79.448 58,78.5C 58.6517,80.7231 60.1517,81.8898 62.5,82C 61.1667,82.6667 61.1667,83.3333 62.5,84C 63.448,84.4828 64.448,84.6495 65.5,84.5C 65.5,83.5 65.5,82.5 65.5,81.5C 66.1667,82.1667 66.8333,82.8333 67.5,83.5C 67.5,83.8333 67.5,84.1667 67.5,84.5C 67.5,85.5 67.5,86.5 67.5,87.5C 66.8501,87.8039 66.1835,88.1373 65.5,88.5C 63.5811,86.8348 61.7478,85.8348 60,85.5C 59.6667,86.1667 59.3333,86.8333 59,87.5C 58,87.1667 57,86.8333 56,86.5C 51.798,87.2688 47.6313,88.2688 43.5,89.5C 42.5,89.3333 41.5,89.1667 40.5,89C 39.5119,86.833 38.1786,84.9997 36.5,83.5C 36.1667,83.5 35.8333,83.5 35.5,83.5C 34.1667,80.8333 32.8333,78.1667 31.5,75.5C 31.1667,74.8333 30.8333,74.1667 30.5,73.5 Z"/></g>
<g><path style="opacity:0.996" fill="#37cda5" d="M 136.5,64.5 C 137.167,65.1667 137.833,65.8333 138.5,66.5C 137.833,66.5 137.5,66.8333 137.5,67.5C 136.603,66.4019 135.77,66.4019 135,67.5C 134.209,68.745 133.709,70.0783 133.5,71.5C 132.542,71.9528 131.708,72.6195 131,73.5C 129.748,76.999 128.248,80.3323 126.5,83.5C 125.974,85.2303 124.974,86.5637 123.5,87.5C 121.983,87.5106 120.816,88.1772 120,89.5C 119.389,87.2499 118.056,85.5832 116,84.5C 114.254,85.5863 113.088,87.5863 112.5,90.5C 112.167,90.5 111.833,90.5 111.5,90.5C 111.056,88.8868 110.056,87.7202 108.5,87C 108.833,86.6667 109.167,86.3333 109.5,86C 108.333,85.8333 107.167,85.6667 106,85.5C 102.126,86.7356 98.293,88.0689 94.5,89.5C 96.1667,84.8333 97.8333,80.1667 99.5,75.5C 99.3284,74.5084 99.6618,73.8417 100.5,73.5C 101.167,73.1667 101.833,72.8333 102.5,72.5C 102.586,73.4959 102.252,74.3292 101.5,75C 102.676,76.9142 103.676,76.7476 104.5,74.5C 104.698,79.1505 106.865,80.1505 111,77.5C 113.55,80.6187 116.55,83.2853 120,85.5C 120.353,84.3284 120.187,83.1618 119.5,82C 121.39,80.0965 123.724,78.9298 126.5,78.5C 127.452,76.9547 127.785,75.288 127.5,73.5C 130.199,71.1035 132.533,68.2702 134.5,65C 135.094,64.5357 135.761,64.369 136.5,64.5 Z"/></g>
<g><path style="opacity:0.847" fill="#5ac9ac" d="M 136.5,70.5 C 136.833,70.5 137.167,70.5 137.5,70.5C 137.649,71.552 137.483,72.552 137,73.5C 133.886,77.7235 131.053,82.0569 128.5,86.5C 128.5,85.8333 128.167,85.5 127.5,85.5C 127.672,84.5084 127.338,83.8417 126.5,83.5C 128.248,80.3323 129.748,76.999 131,73.5C 131.708,72.6195 132.542,71.9528 133.5,71.5C 133.5,72.1667 133.5,72.8333 133.5,73.5C 133.833,74.8333 134.167,74.8333 134.5,73.5C 135.338,73.1583 135.672,72.4916 135.5,71.5C 136.167,71.5 136.5,71.1667 136.5,70.5 Z"/></g>
<g><path style="opacity:0.996" fill="#31cbab" d="M 174.5,85.5 C 175.156,86.2778 175.989,86.9444 177,87.5C 178.333,86.8333 179.667,86.1667 181,85.5C 184.251,85.6643 187.751,85.6643 191.5,85.5C 191.351,86.552 191.517,87.552 192,88.5C 194.498,87.2215 196.998,87.2215 199.5,88.5C 199.5,89.5 199.5,90.5 199.5,91.5C 198.518,92.1408 197.518,92.8075 196.5,93.5C 193.589,88.8943 190.422,88.561 187,92.5C 186.667,91.8333 186.333,91.1667 186,90.5C 184,91.8333 182,91.8333 180,90.5C 178.43,91.614 177.097,92.9474 176,94.5C 175.304,91.5219 174.804,88.5219 174.5,85.5 Z"/></g>
<g><path style="opacity:0.004" fill="#36c4a2" d="M 29.5,86.5 C 30.8333,87.1667 30.8333,87.1667 29.5,86.5 Z"/></g>
<g><path style="opacity:0.996" fill="#30cbad" d="M 36.5,83.5 C 38.1786,84.9997 39.5119,86.833 40.5,89C 41.5,89.1667 42.5,89.3333 43.5,89.5C 47.6313,88.2688 51.798,87.2688 56,86.5C 57,86.8333 58,87.1667 59,87.5C 59.3333,86.8333 59.6667,86.1667 60,85.5C 61.7478,85.8348 63.5811,86.8348 65.5,88.5C 66.1835,88.1373 66.8501,87.8039 67.5,87.5C 68.9396,91.0251 70.9396,94.3584 73.5,97.5C 73.1373,98.1835 72.8039,98.8501 72.5,99.5C 69.4383,97.0316 67.105,94.0316 65.5,90.5C 63.7049,91.2651 61.8716,91.9318 60,92.5C 59.0546,92.0946 58.3879,91.428 58,90.5C 57.3333,93.1667 56.6667,93.1667 56,90.5C 55.3333,93.1667 54.6667,93.1667 54,90.5C 53.3333,93.1667 52.6667,93.1667 52,90.5C 50.2162,92.0656 48.2162,93.3989 46,94.5C 44.7562,92.4236 42.9229,91.4236 40.5,91.5C 38.659,89.1515 37.3257,86.4848 36.5,83.5 Z"/></g>
<g><path style="opacity:0.255" fill="#54c6ae" d="M 102.5,64.5 C 103.097,64.7352 103.43,65.2352 103.5,66C 102.349,68.4649 101.349,70.9649 100.5,73.5C 99.6618,73.8417 99.3284,74.5084 99.5,75.5C 96.9851,79.0328 94.6518,82.6995 92.5,86.5C 91.8333,86.8333 91.1667,87.1667 90.5,87.5C 90.6716,88.4916 90.3382,89.1583 89.5,89.5C 89.1667,88.1667 88.8333,88.1667 88.5,89.5C 87.9569,89.44 87.6236,89.1067 87.5,88.5C 90.4652,82.375 93.6319,76.375 97,70.5C 98.1313,71.6039 98.9646,71.2705 99.5,69.5C 98.3387,67.7763 98.5053,66.1096 100,64.5C 100.333,65.1667 100.667,65.8333 101,66.5C 101.278,65.5842 101.778,64.9175 102.5,64.5 Z"/></g>
<g><path style="opacity:0.996" fill="#31cbac" d="M 99.5,75.5 C 97.8333,80.1667 96.1667,84.8333 94.5,89.5C 98.293,88.0689 102.126,86.7356 106,85.5C 107.167,85.6667 108.333,85.8333 109.5,86C 109.167,86.3333 108.833,86.6667 108.5,87C 110.056,87.7202 111.056,88.8868 111.5,90.5C 111.19,91.7383 110.69,91.7383 110,90.5C 109.506,92.1341 109.34,93.8008 109.5,95.5C 105.149,95.6435 100.816,95.4769 96.5,95C 97.3613,92.6793 96.3613,91.5126 93.5,91.5C 93.8076,93.924 93.4742,96.2573 92.5,98.5C 91.5745,99.6405 90.7412,99.6405 90,98.5C 89.51,97.2068 89.3433,95.8734 89.5,94.5C 90.4986,91.8382 91.4986,89.1716 92.5,86.5C 94.6518,82.6995 96.9851,79.0328 99.5,75.5 Z"/></g>
<g><path style="opacity:0.996" fill="#31ccac" d="M 123.5,87.5 C 122.262,90.7378 120.596,93.7378 118.5,96.5C 117.312,95.3157 116.145,95.3157 115,96.5C 114.062,94.5115 113.228,92.5115 112.5,90.5C 113.088,87.5863 114.254,85.5863 116,84.5C 118.056,85.5832 119.389,87.2499 120,89.5C 120.816,88.1772 121.983,87.5106 123.5,87.5 Z"/></g>
<g><path style="opacity:0.996" fill="#2fcab0" d="M 172.5,85.5 C 173.167,85.5 173.833,85.5 174.5,85.5C 174.804,88.5219 175.304,91.5219 176,94.5C 177.097,92.9474 178.43,91.614 180,90.5C 182,91.8333 184,91.8333 186,90.5C 186.333,91.1667 186.667,91.8333 187,92.5C 190.422,88.561 193.589,88.8943 196.5,93.5C 197.518,92.8075 198.518,92.1408 199.5,91.5C 199.5,93.1667 199.5,94.8333 199.5,96.5C 197.053,94.2137 194.72,94.2137 192.5,96.5C 190.786,95.3915 190.119,96.0582 190.5,98.5C 187.606,98.0423 185.106,98.709 183,100.5C 179.749,98.9226 176.749,96.9226 174,94.5C 173.623,95.9423 172.79,96.9423 171.5,97.5C 171.5,96.1667 171.5,94.8333 171.5,93.5C 172.092,90.8728 172.425,88.2062 172.5,85.5 Z"/></g>
<g><path style="opacity:0.996" fill="#2dc9b2" d="M 72.5,99.5 C 73.7125,100.497 73.5458,101.497 72,102.5C 70.6667,101.167 69.3333,99.8333 68,98.5C 66.7964,99.4706 66.2964,100.471 66.5,101.5C 62.9417,101.384 59.275,101.218 55.5,101C 53.3093,96.0556 49.976,94.8889 45.5,97.5C 44.0295,96.6195 43.1962,95.2861 43,93.5C 42.3292,92.7476 41.4959,92.4142 40.5,92.5C 40.5,92.1667 40.5,91.8333 40.5,91.5C 42.9229,91.4236 44.7562,92.4236 46,94.5C 48.2162,93.3989 50.2162,92.0656 52,90.5C 52.6667,93.1667 53.3333,93.1667 54,90.5C 54.6667,93.1667 55.3333,93.1667 56,90.5C 56.6667,93.1667 57.3333,93.1667 58,90.5C 58.3879,91.428 59.0546,92.0946 60,92.5C 61.8716,91.9318 63.7049,91.2651 65.5,90.5C 67.105,94.0316 69.4383,97.0316 72.5,99.5 Z"/></g>
<g><path style="opacity:0.296" fill="#4fc7ab" d="M 164.5,70.5 C 167.41,72.2391 169.91,74.5724 172,77.5C 172.497,80.146 172.664,82.8127 172.5,85.5C 172.425,88.2062 172.092,90.8728 171.5,93.5C 171.167,93.5 170.833,93.5 170.5,93.5C 170.565,93.0618 170.399,92.7284 170,92.5C 169.722,93.4158 169.222,94.0825 168.5,94.5C 168.737,93.209 168.404,92.209 167.5,91.5C 167.207,87.5633 167.54,83.73 168.5,80C 166.709,78.2293 165.043,76.396 163.5,74.5C 163.557,73.391 163.89,72.391 164.5,71.5C 164.5,71.1667 164.5,70.8333 164.5,70.5 Z"/></g>
<g><path style="opacity:0.004" fill="#33c6a9" d="M 206.5,92.5 C 207.833,93.1667 207.833,93.1667 206.5,92.5 Z"/></g>
<g><path style="opacity:0.996" fill="#50bfaf" d="M 126.5,83.5 C 127.338,83.8417 127.672,84.5084 127.5,85.5C 128.167,85.5 128.5,85.8333 128.5,86.5C 128.611,87.1174 128.944,87.6174 129.5,88C 126.422,92.0101 123.755,96.1768 121.5,100.5C 121.167,97.8333 120.833,97.8333 120.5,100.5C 119.662,100.842 119.328,101.508 119.5,102.5C 118.662,102.842 118.328,103.508 118.5,104.5C 118.167,104.5 117.833,104.5 117.5,104.5C 117.591,102.302 116.925,101.969 115.5,103.5C 116.043,100.962 117.043,98.6282 118.5,96.5C 120.596,93.7378 122.262,90.7378 123.5,87.5C 124.974,86.5637 125.974,85.2303 126.5,83.5 Z"/></g>
<g><path style="opacity:0.996" fill="#2bc9b1" d="M 111.5,90.5 C 111.833,90.5 112.167,90.5 112.5,90.5C 113.228,92.5115 114.062,94.5115 115,96.5C 116.145,95.3157 117.312,95.3157 118.5,96.5C 117.043,98.6282 116.043,100.962 115.5,103.5C 114.518,104.141 113.518,104.807 112.5,105.5C 111.646,104.478 110.646,103.645 109.5,103C 105.5,102.333 101.5,102.333 97.5,103C 96.3333,103.5 95.5,104.333 95,105.5C 94.1074,104.919 93.1074,104.585 92,104.5C 89.7298,105.86 87.2298,106.527 84.5,106.5C 84.1667,106.5 83.8333,106.5 83.5,106.5C 85.0918,102.257 87.0918,98.257 89.5,94.5C 89.3433,95.8734 89.51,97.2068 90,98.5C 90.7412,99.6405 91.5745,99.6405 92.5,98.5C 93.4742,96.2573 93.8076,93.924 93.5,91.5C 96.3613,91.5126 97.3613,92.6793 96.5,95C 100.816,95.4769 105.149,95.6435 109.5,95.5C 109.34,93.8008 109.506,92.1341 110,90.5C 110.69,91.7383 111.19,91.7383 111.5,90.5 Z"/></g>
<g><path style="opacity:0.996" fill="#2cc7b2" d="M 199.5,96.5 C 199.443,97.609 199.11,98.609 198.5,99.5C 198.672,100.492 198.338,101.158 197.5,101.5C 197.217,100.711 196.717,100.044 196,99.5C 192.091,100.796 187.925,101.463 183.5,101.5C 179.5,101.333 175.5,101.167 171.5,101C 170.316,99.8545 170.316,98.6879 171.5,97.5C 172.79,96.9423 173.623,95.9423 174,94.5C 176.749,96.9226 179.749,98.9226 183,100.5C 185.106,98.709 187.606,98.0423 190.5,98.5C 190.119,96.0582 190.786,95.3915 192.5,96.5C 194.72,94.2137 197.053,94.2137 199.5,96.5 Z"/></g>
<g><path style="opacity:0.007" fill="#48c3b0" d="M 202.5,95.5 C 202.833,95.5 203.167,95.5 203.5,95.5C 203.768,97.099 203.434,98.4324 202.5,99.5C 202.5,98.1667 202.5,96.8333 202.5,95.5 Z"/></g>
<g><path style="opacity:0.239" fill="#4abcad" d="M 35.5,83.5 C 35.8333,83.5 36.1667,83.5 36.5,83.5C 37.3257,86.4848 38.659,89.1515 40.5,91.5C 40.5,91.8333 40.5,92.1667 40.5,92.5C 40.9021,95.752 42.2354,98.4187 44.5,100.5C 43.0755,98.9689 42.4088,99.3023 42.5,101.5C 41.8333,101.5 41.5,101.833 41.5,102.5C 37.8878,97.5897 35.2211,92.5897 33.5,87.5C 33.5,87.1667 33.5,86.8333 33.5,86.5C 34.1667,86.5 34.5,86.1667 34.5,85.5C 34.3284,84.5084 34.6618,83.8417 35.5,83.5 Z"/></g>
<g><path style="opacity:0.007" fill="#4dbeb1" d="M 70.5,81.5 C 72.6682,83.4783 73.3349,85.8116 72.5,88.5C 72.963,91.3506 74.2964,92.3506 76.5,91.5C 76.8333,92.8333 77.1667,94.1667 77.5,95.5C 76.1667,95.8333 76.1667,96.1667 77.5,96.5C 77.369,97.2389 77.5357,97.9056 78,98.5C 79.8402,97.1669 80.3402,97.3335 79.5,99C 80.2529,100.487 81.0862,100.654 82,99.5C 82.9836,101.795 83.8169,101.461 84.5,98.5C 83.5721,97.2322 83.4054,95.8989 84,94.5C 86.2948,94.1489 87.7948,92.4822 88.5,89.5C 88.8333,89.5 89.1667,89.5 89.5,89.5C 90.3382,89.1583 90.6716,88.4916 90.5,87.5C 91.1667,87.1667 91.8333,86.8333 92.5,86.5C 91.4986,89.1716 90.4986,91.8382 89.5,94.5C 87.0918,98.257 85.0918,102.257 83.5,106.5C 82.1751,105.047 81.3418,105.381 81,107.5C 80.2208,104.903 79.7208,104.903 79.5,107.5C 78.6544,104.321 76.9878,101.654 74.5,99.5C 73.4942,93.8246 71.1609,88.8246 67.5,84.5C 67.5,84.1667 67.5,83.8333 67.5,83.5C 67.9377,82.4937 68.6043,82.4937 69.5,83.5C 70.1667,83.5 70.5,83.1667 70.5,82.5C 70.5,82.1667 70.5,81.8333 70.5,81.5 Z"/></g>
<g><path style="opacity:0.008" fill="#4ec1b1" d="M 77.5,95.5 C 78.8333,96.1667 78.8333,96.1667 77.5,95.5 Z"/></g>
<g><path style="opacity:0.004" fill="#32c8a9" d="M 77.5,91.5 C 78.8333,92.1667 78.8333,92.1667 77.5,91.5 Z"/></g>
<g><path style="opacity:0.004" fill="#3fc2a8" d="M 77.5,91.5 C 76.8333,90.1667 76.8333,90.1667 77.5,91.5 Z"/></g>
<g><path style="opacity:0.996" fill="#2fc7b4" d="M 67.5,84.5 C 71.1609,88.8246 73.4942,93.8246 74.5,99.5C 74.7852,101.288 74.4519,102.955 73.5,104.5C 69.6832,103.798 65.8498,103.131 62,102.5C 60.7387,102.759 59.7387,103.426 59,104.5C 56.5194,103.978 54.186,103.978 52,104.5C 50.1469,102.709 47.9802,101.376 45.5,100.5C 45.1667,100.5 44.8333,100.5 44.5,100.5C 42.2354,98.4187 40.9021,95.752 40.5,92.5C 41.4959,92.4142 42.3292,92.7476 43,93.5C 43.1962,95.2861 44.0295,96.6195 45.5,97.5C 49.976,94.8889 53.3093,96.0556 55.5,101C 59.275,101.218 62.9417,101.384 66.5,101.5C 66.2964,100.471 66.7964,99.4706 68,98.5C 69.3333,99.8333 70.6667,101.167 72,102.5C 73.5458,101.497 73.7125,100.497 72.5,99.5C 72.8039,98.8501 73.1373,98.1835 73.5,97.5C 70.9396,94.3584 68.9396,91.0251 67.5,87.5C 67.5,86.5 67.5,85.5 67.5,84.5 Z"/></g>
<g><path style="opacity:0.012" fill="#48c1b3" d="M 165.5,96.5 C 165.5,97.1667 165.5,97.8333 165.5,98.5C 164.833,98.5 164.5,98.8333 164.5,99.5C 164.167,99.5 163.833,99.5 163.5,99.5C 163.427,97.9731 164.094,96.9731 165.5,96.5 Z"/></g>
<g><path style="opacity:0.898" fill="#4ec4af" d="M 199.5,77.5 C 201.453,83.0738 202.12,89.0738 201.5,95.5C 201.5,96.8333 201.5,98.1667 201.5,99.5C 200.596,100.209 200.263,101.209 200.5,102.5C 200.5,102.833 200.5,103.167 200.5,103.5C 199.833,103.5 199.5,103.833 199.5,104.5C 199.35,102.857 199.017,101.19 198.5,99.5C 199.11,98.609 199.443,97.609 199.5,96.5C 199.5,94.8333 199.5,93.1667 199.5,91.5C 199.5,90.5 199.5,89.5 199.5,88.5C 199.5,85.5 199.5,82.5 199.5,79.5C 199.5,78.8333 199.5,78.1667 199.5,77.5 Z"/></g>
<g><path style="opacity:0.004" fill="#30c3ab" d="M 36.5,99.5 C 37.8333,100.167 37.8333,100.167 36.5,99.5 Z"/></g>
<g><path style="opacity:0.008" fill="#4cc5b3" d="M 201.5,99.5 C 201.833,99.5 202.167,99.5 202.5,99.5C 202.737,100.791 202.404,101.791 201.5,102.5C 201.5,101.5 201.5,100.5 201.5,99.5 Z"/></g>
<g><path style="opacity:0.004" fill="#2ebda7" d="M 206.5,99.5 C 207.833,100.167 207.833,100.167 206.5,99.5 Z"/></g>
<g><path style="opacity:0.004" fill="#2cc1b1" d="M 124.5,100.5 C 125.525,100.897 125.692,101.563 125,102.5C 124.536,101.906 124.369,101.239 124.5,100.5 Z"/></g>
<g><path style="opacity:0.004" fill="#30c4ad" d="M 153.5,101.5 C 154.833,102.167 154.833,102.167 153.5,101.5 Z"/></g>
<g><path style="opacity:0.004" fill="#43c4b7" d="M 158.5,101.5 C 159.833,102.167 159.833,102.167 158.5,101.5 Z"/></g>
<g><path style="opacity:0.996" fill="#2ac6b7" d="M 170.5,93.5 C 170.833,93.5 171.167,93.5 171.5,93.5C 171.5,94.8333 171.5,96.1667 171.5,97.5C 170.316,98.6879 170.316,99.8545 171.5,101C 175.5,101.167 179.5,101.333 183.5,101.5C 187.925,101.463 192.091,100.796 196,99.5C 196.717,100.044 197.217,100.711 197.5,101.5C 197.759,105.237 196.093,107.57 192.5,108.5C 186.299,107.895 180.133,107.228 174,106.5C 173.586,106.957 173.086,107.291 172.5,107.5C 170.225,103.733 168.558,104.066 167.5,108.5C 165.865,109.815 164.199,109.815 162.5,108.5C 161.808,109.025 161.308,109.692 161,110.5C 160.833,110 160.667,109.5 160.5,109C 162.831,105.737 165.331,102.571 168,99.5C 169.122,97.5932 169.955,95.5932 170.5,93.5 Z"/></g>
<g><path style="opacity:0.004" fill="#30c4ad" d="M 204.5,101.5 C 205.833,102.167 205.833,102.167 204.5,101.5 Z"/></g>
<g><path style="opacity:0.996" fill="#28c5b8" d="M 115.5,103.5 C 114.594,106.074 113.261,108.407 111.5,110.5C 110.162,112.113 108.495,112.613 106.5,112C 107.328,111.085 108.328,110.419 109.5,110C 103.627,109.952 97.96,109.119 92.5,107.5C 90.0838,107.875 87.7504,108.541 85.5,109.5C 83.1966,109.124 82.8632,108.124 84.5,106.5C 87.2298,106.527 89.7298,105.86 92,104.5C 93.1074,104.585 94.1074,104.919 95,105.5C 95.5,104.333 96.3333,103.5 97.5,103C 101.5,102.333 105.5,102.333 109.5,103C 110.646,103.645 111.646,104.478 112.5,105.5C 113.518,104.807 114.518,104.141 115.5,103.5 Z"/></g>
<g><path style="opacity:0.004" fill="#2ec0aa" d="M 206.5,102.5 C 207.833,103.167 207.833,103.167 206.5,102.5 Z"/></g>
<g><path style="opacity:0.996" fill="#28c5b9" d="M 74.5,99.5 C 76.9878,101.654 78.6544,104.321 79.5,107.5C 79.719,108.675 79.3857,109.675 78.5,110.5C 74.5221,110.197 70.3554,108.864 66,106.5C 64.984,107.634 64.3173,107.301 64,105.5C 61.3788,106.613 58.8788,107.946 56.5,109.5C 55.1502,108.05 53.4835,107.383 51.5,107.5C 47.8871,106.637 45.8871,104.303 45.5,100.5C 47.9802,101.376 50.1469,102.709 52,104.5C 54.186,103.978 56.5194,103.978 59,104.5C 59.7387,103.426 60.7387,102.759 62,102.5C 65.8498,103.131 69.6832,103.798 73.5,104.5C 74.4519,102.955 74.7852,101.288 74.5,99.5 Z"/></g>
<g><path style="opacity:0.008" fill="#4bbfb4" d="M 120.5,100.5 C 120.833,100.5 121.167,100.5 121.5,100.5C 121.771,102.38 121.104,103.713 119.5,104.5C 119.5,103.833 119.5,103.167 119.5,102.5C 120.338,102.158 120.672,101.492 120.5,100.5 Z"/></g>
<g><path style="opacity:0.005" fill="#2bc3b5" d="M 128.5,104.5 C 129.251,103.427 130.251,103.26 131.5,104C 130.552,104.483 129.552,104.649 128.5,104.5 Z"/></g>
<g><path style="opacity:0.005" fill="#2ec4b3" d="M 155.5,104.5 C 147.826,104.666 140.159,104.5 132.5,104C 140.345,103.178 148.011,103.344 155.5,104.5 Z"/></g>
<g><path style="opacity:1" fill="#44bcb7" d="M 44.5,100.5 C 44.8333,100.5 45.1667,100.5 45.5,100.5C 45.8871,104.303 47.8871,106.637 51.5,107.5C 51.5,109.167 51.5,110.833 51.5,112.5C 50.8485,111.909 50.1818,111.243 49.5,110.5C 48.7025,110.957 48.3691,111.624 48.5,112.5C 47.8333,112.5 47.5,112.833 47.5,113.5C 47.5,113.833 47.5,114.167 47.5,114.5C 47.1667,114.5 46.8333,114.5 46.5,114.5C 45.9965,111.832 44.6631,109.166 42.5,106.5C 42.1667,105.167 41.8333,103.833 41.5,102.5C 42.1667,102.5 42.5,102.167 42.5,101.5C 42.4088,99.3023 43.0755,98.9689 44.5,100.5 Z"/></g>
<g><path style="opacity:0.996" fill="#24c4be" d="M 79.5,107.5 C 79.7208,104.903 80.2208,104.903 81,107.5C 81.3418,105.381 82.1751,105.047 83.5,106.5C 83.8333,106.5 84.1667,106.5 84.5,106.5C 82.8632,108.124 83.1966,109.124 85.5,109.5C 87.7504,108.541 90.0838,107.875 92.5,107.5C 97.96,109.119 103.627,109.952 109.5,110C 108.328,110.419 107.328,111.085 106.5,112C 108.495,112.613 110.162,112.113 111.5,110.5C 111.167,111.833 110.833,113.167 110.5,114.5C 109.5,114.833 108.833,115.5 108.5,116.5C 106.876,116.36 105.71,117.027 105,118.5C 104.804,116.714 103.971,115.381 102.5,114.5C 100.226,114.97 98.2262,115.97 96.5,117.5C 95.7379,116.372 95.0712,115.205 94.5,114C 87.471,113.09 80.6376,113.59 74,115.5C 70.8329,115.099 67.6663,114.766 64.5,114.5C 64.6602,112.801 64.4935,111.134 64,109.5C 62.2191,111.739 60.7191,114.072 59.5,116.5C 58.5041,116.414 57.6708,116.748 57,117.5C 55.2342,115.404 53.9009,113.071 53,110.5C 52.7216,111.416 52.2216,112.082 51.5,112.5C 51.5,110.833 51.5,109.167 51.5,107.5C 53.4835,107.383 55.1502,108.05 56.5,109.5C 58.8788,107.946 61.3788,106.613 64,105.5C 64.3173,107.301 64.984,107.634 66,106.5C 70.3554,108.864 74.5221,110.197 78.5,110.5C 79.3857,109.675 79.719,108.675 79.5,107.5 Z"/></g>
<g><path style="opacity:0.069" fill="#48bbb9" d="M 155.5,104.5 C 156.5,104.5 157.5,104.5 158.5,104.5C 160.379,104.393 160.712,104.893 159.5,106C 153.395,108.248 147.061,109.081 140.5,108.5C 136.498,108.036 132.831,108.702 129.5,110.5C 129.5,109.5 129.5,108.5 129.5,107.5C 137.174,107.666 144.841,107.5 152.5,107C 145.321,106.829 138.321,106.329 131.5,105.5C 139.684,105.826 147.684,105.492 155.5,104.5 Z"/></g>
<g><path style="opacity:0.004" fill="#2dc4b2" d="M 42.5,106.5 C 41.8333,107.167 41.8333,107.167 42.5,106.5 Z"/></g>
<g><path style="opacity:0.996" fill="#24c3bf" d="M 192.5,108.5 C 191.699,111.435 190.366,114.101 188.5,116.5C 187.527,118.149 186.527,119.816 185.5,121.5C 180.846,121.605 180.346,120.271 184,117.5C 184.49,116.207 184.657,114.873 184.5,113.5C 181.728,113.595 179.728,114.929 178.5,117.5C 177.675,118.386 176.675,118.719 175.5,118.5C 175.714,116.856 175.38,115.356 174.5,114C 170.833,113.667 167.167,113.333 163.5,113C 162.944,112.617 162.611,112.117 162.5,111.5C 164.964,111.176 167.631,111.009 170.5,111C 168.881,110.764 167.881,109.931 167.5,108.5C 168.558,104.066 170.225,103.733 172.5,107.5C 173.086,107.291 173.586,106.957 174,106.5C 180.133,107.228 186.299,107.895 192.5,108.5 Z"/></g>
<g><path style="opacity:0.004" fill="#2ac0b5" d="M 120.5,107.5 C 121.833,108.167 121.833,108.167 120.5,107.5 Z"/></g>
<g><path style="opacity:0.996" fill="#2ac3bd" d="M 167.5,91.5 C 167.263,92.791 167.596,93.791 168.5,94.5C 169.222,94.0825 169.722,93.4158 170,92.5C 170.399,92.7284 170.565,93.0618 170.5,93.5C 169.955,95.5932 169.122,97.5932 168,99.5C 165.331,102.571 162.831,105.737 160.5,109C 160.667,109.5 160.833,110 161,110.5C 161.308,109.692 161.808,109.025 162.5,108.5C 164.199,109.815 165.865,109.815 167.5,108.5C 167.881,109.931 168.881,110.764 170.5,111C 167.631,111.009 164.964,111.176 162.5,111.5C 160.952,111.821 160.285,112.821 160.5,114.5C 150.586,116.928 141.253,115.595 132.5,110.5C 134.284,109.394 136.118,109.394 138,110.5C 139.301,110.361 140.134,109.695 140.5,108.5C 147.061,109.081 153.395,108.248 159.5,106C 160.712,104.893 160.379,104.393 158.5,104.5C 159.429,103.685 160.429,102.852 161.5,102C 160.391,100.187 161.058,99.3537 163.5,99.5C 163.833,100.833 164.167,100.833 164.5,99.5C 165.167,99.5 165.5,99.1667 165.5,98.5C 166.833,97.8333 166.833,97.1667 165.5,96.5C 165.796,94.597 166.463,92.9303 167.5,91.5 Z"/></g>
<g><path style="opacity:0.006" fill="#47bbb8" d="M 197.5,109.5 C 197.833,109.5 198.167,109.5 198.5,109.5C 198.672,110.492 198.338,111.158 197.5,111.5C 197.5,110.833 197.5,110.167 197.5,109.5 Z"/></g>
<g><path style="opacity:1" fill="#49b8b6" d="M 117.5,104.5 C 117.833,105.833 118.167,105.833 118.5,104.5C 118.833,104.5 119.167,104.5 119.5,104.5C 117.771,108.958 115.771,113.291 113.5,117.5C 113.167,117.5 112.833,117.5 112.5,117.5C 112.5,116.833 112.167,116.5 111.5,116.5C 111.672,115.508 111.338,114.842 110.5,114.5C 110.833,113.167 111.167,111.833 111.5,110.5C 113.261,108.407 114.594,106.074 115.5,103.5C 116.925,101.969 117.591,102.302 117.5,104.5 Z"/></g>
<g><path style="opacity:0.244" fill="#47bdba" d="M 198.5,99.5 C 199.017,101.19 199.35,102.857 199.5,104.5C 200.167,104.5 200.5,104.167 200.5,103.5C 200.5,103.167 200.5,102.833 200.5,102.5C 200.833,102.5 201.167,102.5 201.5,102.5C 201.448,105.346 200.448,107.68 198.5,109.5C 198.167,108.167 197.833,108.167 197.5,109.5C 196.167,110.167 196.167,110.833 197.5,111.5C 196.66,113.853 195.326,115.853 193.5,117.5C 193.5,116.833 193.167,116.5 192.5,116.5C 191.167,116.5 189.833,116.5 188.5,116.5C 190.366,114.101 191.699,111.435 192.5,108.5C 196.093,107.57 197.759,105.237 197.5,101.5C 198.338,101.158 198.672,100.492 198.5,99.5 Z"/></g>
<g><path style="opacity:0.996" fill="#21c1c2" d="M 108.5,116.5 C 106.419,120.997 104.086,125.331 101.5,129.5C 100.069,128.22 99.4021,126.553 99.5,124.5C 100.922,124.25 101.922,123.417 102.5,122C 101.359,121.259 101.359,120.425 102.5,119.5C 102,119.167 101.5,118.833 101,118.5C 99.9231,119.429 98.7564,120.096 97.5,120.5C 95.6954,119.763 94.0287,118.763 92.5,117.5C 89.8971,118.562 87.2305,118.728 84.5,118C 85.8882,117.111 85.7215,116.611 84,116.5C 81.9419,117.958 79.6086,118.625 77,118.5C 73.7853,116.632 70.7853,115.965 68,116.5C 65.498,117.108 63.498,118.441 62,120.5C 60.4053,119.644 59.572,118.311 59.5,116.5C 60.7191,114.072 62.2191,111.739 64,109.5C 64.4935,111.134 64.6602,112.801 64.5,114.5C 67.6663,114.766 70.8329,115.099 74,115.5C 80.6376,113.59 87.471,113.09 94.5,114C 95.0712,115.205 95.7379,116.372 96.5,117.5C 98.2262,115.97 100.226,114.97 102.5,114.5C 103.971,115.381 104.804,116.714 105,118.5C 105.71,117.027 106.876,116.36 108.5,116.5 Z"/></g>
<g><path style="opacity:0.004" fill="#2cc2b4" d="M 46.5,114.5 C 45.8333,115.167 45.8333,115.167 46.5,114.5 Z"/></g>
<g><path style="opacity:0.996" fill="#1ec0c4" d="M 185.5,121.5 C 183.17,124.449 180.17,125.949 176.5,126C 180.864,119.534 179.864,118.368 173.5,122.5C 172.808,121.975 172.308,121.308 172,120.5C 170.333,121.167 168.667,121.833 167,122.5C 159.693,121.699 151.859,121.532 143.5,122C 140.685,123.218 138.019,124.718 135.5,126.5C 134.09,124.458 132.59,122.458 131,120.5C 128.552,122.27 126.052,122.937 123.5,122.5C 123.893,120.716 124.559,119.05 125.5,117.5C 126.268,118.263 126.768,119.263 127,120.5C 128.087,118.248 129.921,116.915 132.5,116.5C 131.975,115.808 131.308,115.308 130.5,115C 135.108,113.703 138.942,114.87 142,118.5C 149.007,117.513 156.007,116.513 163,115.5C 167.456,115.599 171.622,116.599 175.5,118.5C 176.675,118.719 177.675,118.386 178.5,117.5C 179.728,114.929 181.728,113.595 184.5,113.5C 184.657,114.873 184.49,116.207 184,117.5C 180.346,120.271 180.846,121.605 185.5,121.5 Z"/></g>
<g><path style="opacity:0.004" fill="#28beb9" d="M 116.5,115.5 C 117.833,116.167 117.833,116.167 116.5,115.5 Z"/></g>
<g><path style="opacity:0.02" fill="#41b3b6" d="M 131.5,105.5 C 138.321,106.329 145.321,106.829 152.5,107C 144.841,107.5 137.174,107.666 129.5,107.5C 129.5,108.5 129.5,109.5 129.5,110.5C 127.396,112.372 126.063,114.705 125.5,117.5C 124.559,119.05 123.893,120.716 123.5,122.5C 123.167,122.5 122.833,122.5 122.5,122.5C 122.167,121.833 121.833,121.167 121.5,120.5C 122.58,118.955 122.58,117.455 121.5,116C 121.903,114.527 122.57,113.194 123.5,112C 123.167,111.667 122.833,111.333 122.5,111C 124.723,110.348 125.89,108.848 126,106.5C 126.805,108.901 127.638,108.734 128.5,106C 129.448,105.517 130.448,105.351 131.5,105.5 Z"/></g>
<g><path style="opacity:0.996" fill="#22c1c0" d="M 140.5,108.5 C 140.134,109.695 139.301,110.361 138,110.5C 136.118,109.394 134.284,109.394 132.5,110.5C 141.253,115.595 150.586,116.928 160.5,114.5C 160.285,112.821 160.952,111.821 162.5,111.5C 162.611,112.117 162.944,112.617 163.5,113C 167.167,113.333 170.833,113.667 174.5,114C 175.38,115.356 175.714,116.856 175.5,118.5C 171.622,116.599 167.456,115.599 163,115.5C 156.007,116.513 149.007,117.513 142,118.5C 138.942,114.87 135.108,113.703 130.5,115C 131.308,115.308 131.975,115.808 132.5,116.5C 129.921,116.915 128.087,118.248 127,120.5C 126.768,119.263 126.268,118.263 125.5,117.5C 126.063,114.705 127.396,112.372 129.5,110.5C 132.831,108.702 136.498,108.036 140.5,108.5 Z"/></g>
<g><path style="opacity:0.004" fill="#2bc0b6" d="M 197.5,115.5 C 198.833,116.167 198.833,116.167 197.5,115.5 Z"/></g>
<g><path style="opacity:0.961" fill="#40b6bf" d="M 51.5,112.5 C 52.3257,115.485 53.659,118.151 55.5,120.5C 56.5612,123.622 57.8946,126.622 59.5,129.5C 61.2672,131.938 62.6006,134.605 63.5,137.5C 62.6618,137.842 62.3284,138.508 62.5,139.5C 61.8333,139.5 61.5,139.833 61.5,140.5C 59.0228,136.899 56.5228,133.233 54,129.5C 52.3167,124.281 50.15,119.281 47.5,114.5C 47.5,114.167 47.5,113.833 47.5,113.5C 48.1667,113.5 48.5,113.167 48.5,112.5C 48.3691,111.624 48.7025,110.957 49.5,110.5C 50.1818,111.243 50.8485,111.909 51.5,112.5 Z"/></g>
<g><path style="opacity:0.996" fill="#1fc0c5" d="M 59.5,116.5 C 59.572,118.311 60.4053,119.644 62,120.5C 63.498,118.441 65.498,117.108 68,116.5C 70.7853,115.965 73.7853,116.632 77,118.5C 79.6086,118.625 81.9419,117.958 84,116.5C 85.7215,116.611 85.8882,117.111 84.5,118C 87.2305,118.728 89.8971,118.562 92.5,117.5C 94.0287,118.763 95.6954,119.763 97.5,120.5C 97.6309,121.376 97.2975,122.043 96.5,122.5C 88.4184,121.986 80.0851,121.653 71.5,121.5C 68.076,121.295 64.9094,121.961 62,123.5C 60.5838,122.427 59.2504,122.427 58,123.5C 57.6232,122.058 56.7899,121.058 55.5,120.5C 53.659,118.151 52.3257,115.485 51.5,112.5C 52.2216,112.082 52.7216,111.416 53,110.5C 53.9009,113.071 55.2342,115.404 57,117.5C 57.6708,116.748 58.5041,116.414 59.5,116.5 Z"/></g>
<g><path style="opacity:0.004" fill="#2bbfb4" d="M 47.5,119.5 C 48.8333,120.167 48.8333,120.167 47.5,119.5 Z"/></g>
<g><path style="opacity:0.008" fill="#42b9c0" d="M 110.5,119.5 C 110.833,119.5 111.167,119.5 111.5,119.5C 111.672,120.492 111.338,121.158 110.5,121.5C 110.5,120.833 110.5,120.167 110.5,119.5 Z"/></g>
<g><path style="opacity:0.004" fill="#27bebb" d="M 113.5,119.5 C 114.833,120.167 114.833,120.167 113.5,119.5 Z"/></g>
<g><path style="opacity:0.996" fill="#20bec8" d="M 188.5,116.5 C 189.833,116.5 191.167,116.5 192.5,116.5C 193.167,116.5 193.5,116.833 193.5,117.5C 192.9,118.9 191.9,119.9 190.5,120.5C 189.833,120.5 189.5,120.833 189.5,121.5C 188.833,121.5 188.5,121.833 188.5,122.5C 187.833,122.5 187.5,122.833 187.5,123.5C 186.833,123.5 186.5,123.833 186.5,124.5C 185.833,124.5 185.5,124.833 185.5,125.5C 184.833,125.5 184.5,125.833 184.5,126.5C 183.29,126.932 182.29,127.599 181.5,128.5C 181.167,128.5 180.833,128.5 180.5,128.5C 177.437,127.725 174.437,127.725 171.5,128.5C 169.517,128.815 168.184,129.815 167.5,131.5C 165.473,131.662 163.473,131.495 161.5,131C 162.337,129.989 162.67,128.822 162.5,127.5C 160.179,127.229 158.179,127.896 156.5,129.5C 154.505,127.89 152.339,126.557 150,125.5C 145.899,127.121 142.232,128.788 139,130.5C 135.974,127.252 133.474,127.252 131.5,130.5C 130.167,130.5 128.833,130.5 127.5,130.5C 127.297,128.61 127.963,127.11 129.5,126C 128.601,124.764 127.434,123.93 126,123.5C 123.94,125.282 122.107,127.282 120.5,129.5C 121.167,127.167 121.833,124.833 122.5,122.5C 122.833,122.5 123.167,122.5 123.5,122.5C 126.052,122.937 128.552,122.27 131,120.5C 132.59,122.458 134.09,124.458 135.5,126.5C 138.019,124.718 140.685,123.218 143.5,122C 151.859,121.532 159.693,121.699 167,122.5C 168.667,121.833 170.333,121.167 172,120.5C 172.308,121.308 172.808,121.975 173.5,122.5C 179.864,118.368 180.864,119.534 176.5,126C 180.17,125.949 183.17,124.449 185.5,121.5C 186.527,119.816 187.527,118.149 188.5,116.5 Z"/></g>
<g><path style="opacity:0.008" fill="#3fb5b7" d="M 190.5,120.5 C 191.833,121.167 191.833,121.167 190.5,120.5 Z"/></g>
<g><path style="opacity:0.996" fill="#1cbeca" d="M 99.5,124.5 C 98.6136,123.224 97.6136,123.224 96.5,124.5C 95.8108,126.444 95.3108,128.444 95,130.5C 90.2523,129.365 85.419,129.198 80.5,130C 81.5,130.333 82.5,130.667 83.5,131C 81.4356,131.653 79.7689,132.82 78.5,134.5C 77.394,132.716 77.394,130.882 78.5,129C 77.2454,125.355 75.2454,124.522 72.5,126.5C 69.5381,135.507 66.8714,135.507 64.5,126.5C 63.8333,126.167 63.1667,125.833 62.5,125.5C 61.8503,127.184 60.8503,128.517 59.5,129.5C 57.8946,126.622 56.5612,123.622 55.5,120.5C 56.7899,121.058 57.6232,122.058 58,123.5C 59.2504,122.427 60.5838,122.427 62,123.5C 64.9094,121.961 68.076,121.295 71.5,121.5C 80.0851,121.653 88.4184,121.986 96.5,122.5C 97.2975,122.043 97.6309,121.376 97.5,120.5C 98.7564,120.096 99.9231,119.429 101,118.5C 101.5,118.833 102,119.167 102.5,119.5C 101.359,120.425 101.359,121.259 102.5,122C 101.922,123.417 100.922,124.25 99.5,124.5 Z"/></g>
<g><path style="opacity:0.957" fill="#3eb7c0" d="M 110.5,114.5 C 111.338,114.842 111.672,115.508 111.5,116.5C 112.167,116.5 112.5,116.833 112.5,117.5C 112.833,117.5 113.167,117.5 113.5,117.5C 113.167,118.5 112.5,119.167 111.5,119.5C 111.167,118.167 110.833,118.167 110.5,119.5C 109.167,120.167 109.167,120.833 110.5,121.5C 110.672,122.492 110.338,123.158 109.5,123.5C 109.167,122.167 108.833,122.167 108.5,123.5C 107.167,124.167 107.167,124.833 108.5,125.5C 108.672,126.492 108.338,127.158 107.5,127.5C 107.167,126.167 106.833,126.167 106.5,127.5C 105.167,128.167 105.167,128.833 106.5,129.5C 104.862,133.77 102.862,137.77 100.5,141.5C 100.5,141.167 100.5,140.833 100.5,140.5C 100.5,139.833 100.167,139.5 99.5,139.5C 99.5,138.167 98.8333,137.5 97.5,137.5C 97.5,136.5 97.5,135.5 97.5,134.5C 98.5,134.5 99.5,134.5 100.5,134.5C 100.629,132.784 100.962,131.117 101.5,129.5C 104.086,125.331 106.419,120.997 108.5,116.5C 108.833,115.5 109.5,114.833 110.5,114.5 Z"/></g>
<g><path style="opacity:0.008" fill="#3fb7b8" d="M 189.5,121.5 C 189.833,121.5 190.167,121.5 190.5,121.5C 190.315,122.17 189.981,122.17 189.5,121.5 Z"/></g>
<g><path style="opacity:0.012" fill="#3fb9ba" d="M 188.5,122.5 C 188.833,122.5 189.167,122.5 189.5,122.5C 189.315,123.17 188.981,123.17 188.5,122.5 Z"/></g>
<g><path style="opacity:0.006" fill="#3db9bf" d="M 108.5,123.5 C 108.833,123.5 109.167,123.5 109.5,123.5C 109.672,124.492 109.338,125.158 108.5,125.5C 108.5,124.833 108.5,124.167 108.5,123.5 Z"/></g>
<g><path style="opacity:0.012" fill="#40babc" d="M 187.5,123.5 C 187.833,123.5 188.167,123.5 188.5,123.5C 188.315,124.17 187.981,124.17 187.5,123.5 Z"/></g>
<g><path style="opacity:0.012" fill="#40b9be" d="M 186.5,124.5 C 186.833,124.5 187.167,124.5 187.5,124.5C 187.315,125.17 186.981,125.17 186.5,124.5 Z"/></g>
<g><path style="opacity:0.008" fill="#3eb7be" d="M 185.5,125.5 C 185.833,125.5 186.167,125.5 186.5,125.5C 186.315,126.17 185.981,126.17 185.5,125.5 Z"/></g>
<g><path style="opacity:0.008" fill="#3ab6bd" d="M 184.5,126.5 C 184.833,126.5 185.167,126.5 185.5,126.5C 185.315,127.17 184.981,127.17 184.5,126.5 Z"/></g>
<g><path style="opacity:0.008" fill="#3bb8bf" d="M 106.5,127.5 C 106.833,127.5 107.167,127.5 107.5,127.5C 107.672,128.492 107.338,129.158 106.5,129.5C 106.5,128.833 106.5,128.167 106.5,127.5 Z"/></g>
<g><path style="opacity:0.447" fill="#40b3c2" d="M 121.5,120.5 C 121.833,121.167 122.167,121.833 122.5,122.5C 121.833,124.833 121.167,127.167 120.5,129.5C 118.707,131.426 117.707,133.759 117.5,136.5C 117.5,137.167 117.5,137.833 117.5,138.5C 122.738,139.5 128.738,139.833 135.5,139.5C 128.345,140.655 121.012,140.822 113.5,140C 114.167,139.667 114.833,139.333 115.5,139C 113.697,138.363 112.364,137.197 111.5,135.5C 111.846,134.304 112.346,134.304 113,135.5C 114.039,134.756 114.539,133.756 114.5,132.5C 115.833,131.833 115.833,131.167 114.5,130.5C 114.709,129.078 115.209,127.745 116,126.5C 116.333,127.167 116.667,127.833 117,128.5C 118.687,126.393 119.187,124.226 118.5,122C 118.862,120.775 119.362,119.609 120,118.5C 120.278,119.416 120.778,120.082 121.5,120.5 Z"/></g>
<g><path style="opacity:0.996" fill="#18bdd0" d="M 167.5,131.5 C 167.5,131.833 167.5,132.167 167.5,132.5C 165.265,133.228 163.432,134.561 162,136.5C 159.522,135.553 157.188,135.553 155,136.5C 152.73,133.847 150.063,133.181 147,134.5C 145.414,133.624 143.914,132.624 142.5,131.5C 141.478,131.855 140.811,132.522 140.5,133.5C 137.152,133.289 134.152,132.289 131.5,130.5C 133.474,127.252 135.974,127.252 139,130.5C 142.232,128.788 145.899,127.121 150,125.5C 152.339,126.557 154.505,127.89 156.5,129.5C 158.179,127.896 160.179,127.229 162.5,127.5C 162.67,128.822 162.337,129.989 161.5,131C 163.473,131.495 165.473,131.662 167.5,131.5 Z"/></g>
<g><path style="opacity:0.004" fill="#32b6be" d="M 181.5,129.5 C 181.5,129.167 181.5,128.833 181.5,128.5C 184.167,128.833 184.167,129.167 181.5,129.5 Z"/></g>
<g><path style="opacity:0.996" fill="#1cbbcf" d="M 131.5,130.5 C 134.152,132.289 137.152,133.289 140.5,133.5C 140.5,134.833 140.5,136.167 140.5,137.5C 141.552,137.351 142.552,137.517 143.5,138C 142.663,139.011 142.33,140.178 142.5,141.5C 139.355,140.923 137.855,138.923 138,135.5C 137.667,136.167 137.333,136.833 137,137.5C 135.874,136.056 134.374,135.39 132.5,135.5C 127.458,136.145 122.458,136.479 117.5,136.5C 117.707,133.759 118.707,131.426 120.5,129.5C 122.107,127.282 123.94,125.282 126,123.5C 127.434,123.93 128.601,124.764 129.5,126C 127.963,127.11 127.297,128.61 127.5,130.5C 128.833,130.5 130.167,130.5 131.5,130.5 Z"/></g>
<g><path style="opacity:0.008" fill="#35b7c2" d="M 180.5,129.5 C 180.833,129.5 181.167,129.5 181.5,129.5C 181.315,130.17 180.981,130.17 180.5,129.5 Z"/></g>
<g><path style="opacity:0.996" fill="#19bcd1" d="M 99.5,124.5 C 99.4021,126.553 100.069,128.22 101.5,129.5C 100.962,131.117 100.629,132.784 100.5,134.5C 99.5,134.5 98.5,134.5 97.5,134.5C 97.5,135.5 97.5,136.5 97.5,137.5C 97.2041,139.403 96.5375,141.07 95.5,142.5C 94.3741,140.5 94.2075,138.5 95,136.5C 93.2494,135.826 91.5827,135.493 90,135.5C 89.0475,137.592 87.7141,137.925 86,136.5C 83.2595,137.282 80.4262,137.782 77.5,138C 76.536,139.725 75.8693,141.559 75.5,143.5C 74.1667,143.5 72.8333,143.5 71.5,143.5C 71.162,140.843 71.8287,138.51 73.5,136.5C 68.904,134.35 66.2373,135.683 65.5,140.5C 64.8333,139.5 64.1667,138.5 63.5,137.5C 62.6006,134.605 61.2672,131.938 59.5,129.5C 60.8503,128.517 61.8503,127.184 62.5,125.5C 63.1667,125.833 63.8333,126.167 64.5,126.5C 66.8714,135.507 69.5381,135.507 72.5,126.5C 75.2454,124.522 77.2454,125.355 78.5,129C 77.394,130.882 77.394,132.716 78.5,134.5C 79.7689,132.82 81.4356,131.653 83.5,131C 82.5,130.667 81.5,130.333 80.5,130C 85.419,129.198 90.2523,129.365 95,130.5C 95.3108,128.444 95.8108,126.444 96.5,124.5C 97.6136,123.224 98.6136,123.224 99.5,124.5 Z"/></g>
<g><path style="opacity:0.004" fill="#23babe" d="M 111.5,130.5 C 112.833,131.167 112.833,131.167 111.5,130.5 Z"/></g>
<g><path style="opacity:0.988" fill="#32b8cc" d="M 180.5,128.5 C 180.5,128.833 180.5,129.167 180.5,129.5C 179.167,129.833 179.167,130.167 180.5,130.5C 180.5,130.833 180.5,131.167 180.5,131.5C 179.417,131.461 178.417,131.127 177.5,130.5C 176.289,131.274 176.289,132.107 177.5,133C 176.906,133.464 176.239,133.631 175.5,133.5C 174.833,132.167 174.167,132.167 173.5,133.5C 170.833,133.833 170.833,134.167 173.5,134.5C 173.5,135.5 173.5,136.5 173.5,137.5C 173.167,137.5 172.833,137.5 172.5,137.5C 172.5,136.833 172.167,136.5 171.5,136.5C 171.137,134.223 170.137,133.556 168.5,134.5C 167.702,134.043 167.369,133.376 167.5,132.5C 167.5,132.167 167.5,131.833 167.5,131.5C 168.184,129.815 169.517,128.815 171.5,128.5C 174.437,127.725 177.437,127.725 180.5,128.5 Z"/></g>
<g><path style="opacity:0.004" fill="#25bfbf" d="M 107.5,131.5 C 108.833,132.167 108.833,132.167 107.5,131.5 Z"/></g>
<g><path style="opacity:0.004" fill="#3ab4c1" d="M 114.5,130.5 C 114.5,131.167 114.5,131.833 114.5,132.5C 114.167,132.5 113.833,132.5 113.5,132.5C 113.328,131.508 113.662,130.842 114.5,130.5 Z"/></g>
<g><path style="opacity:0.004" fill="#3bb8c6" d="M 180.5,131.5 C 181.833,132.167 181.833,132.167 180.5,131.5 Z"/></g>
<g><path style="opacity:0.008" fill="#3eb7be" d="M 113.5,132.5 C 112.833,133.167 112.833,133.167 113.5,132.5 Z"/></g>
<g><path style="opacity:0.004" fill="#25babc" d="M 182.5,132.5 C 183.833,133.167 183.833,133.167 182.5,132.5 Z"/></g>
<g><path style="opacity:0.004" fill="#24bbbd" d="M 107.5,133.5 C 108.833,134.167 108.833,134.167 107.5,133.5 Z"/></g>
<g><path style="opacity:0.004" fill="#40bcca" d="M 173.5,134.5 C 173.5,134.167 173.5,133.833 173.5,133.5C 174.167,133.5 174.833,133.5 175.5,133.5C 175.158,134.338 174.492,134.672 173.5,134.5 Z"/></g>
<g><path style="opacity:0.004" fill="#25babd" d="M 178.5,134.5 C 179.833,135.167 179.833,135.167 178.5,134.5 Z"/></g>
<g><path style="opacity:0.004" fill="#25b8bb" d="M 181.5,134.5 C 182.833,135.167 182.833,135.167 181.5,134.5 Z"/></g>
<g><path style="opacity:0.242" fill="#36b3cb" d="M 142.5,141.5 C 142.247,144.479 142.913,147.479 144.5,150.5C 144.167,151.167 143.833,151.833 143.5,152.5C 142.167,152.833 142.167,153.167 143.5,153.5C 143.5,153.833 143.5,154.167 143.5,154.5C 143.5,154.833 143.5,155.167 143.5,155.5C 141.818,154.173 140.485,152.506 139.5,150.5C 139.02,147.995 138.02,145.662 136.5,143.5C 137.932,141.703 137.599,140.37 135.5,139.5C 129.69,138.51 123.69,138.177 117.5,138.5C 117.5,137.833 117.5,137.167 117.5,136.5C 122.458,136.479 127.458,136.145 132.5,135.5C 134.374,135.39 135.874,136.056 137,137.5C 137.333,136.833 137.667,136.167 138,135.5C 137.855,138.923 139.355,140.923 142.5,141.5 Z"/></g>
<g><path style="opacity:0.997" fill="#14b8d9" d="M 95.5,142.5 C 92.5995,142.901 91.9328,144.235 93.5,146.5C 92.2455,148.334 91.5789,150.334 91.5,152.5C 90.8333,152.167 90.1667,151.833 89.5,151.5C 88.8333,149.5 87.5,148.167 85.5,147.5C 84.1667,147.5 82.8333,147.5 81.5,147.5C 81.8541,145.459 81.8541,143.626 81.5,142C 80.5838,141.626 79.7504,141.126 79,140.5C 77.9609,141.71 76.7942,142.71 75.5,143.5C 75.8693,141.559 76.536,139.725 77.5,138C 80.4262,137.782 83.2595,137.282 86,136.5C 87.7141,137.925 89.0475,137.592 90,135.5C 91.5827,135.493 93.2494,135.826 95,136.5C 94.2075,138.5 94.3741,140.5 95.5,142.5 Z"/></g>
<g><path style="opacity:0.996" fill="#18b9d7" d="M 167.5,132.5 C 167.369,133.376 167.702,134.043 168.5,134.5C 170.137,133.556 171.137,134.223 171.5,136.5C 172.167,136.5 172.5,136.833 172.5,137.5C 172.833,137.5 173.167,137.5 173.5,137.5C 174.833,138.167 174.833,138.833 173.5,139.5C 173.167,138.167 172.833,138.167 172.5,139.5C 166.975,133.86 166.308,134.527 170.5,141.5C 169.873,142.417 169.539,143.417 169.5,144.5C 167.621,144.607 167.288,144.107 168.5,143C 168,142.5 167.5,142 167,141.5C 166.261,142.574 165.261,143.241 164,143.5C 161.205,142.422 158.371,141.922 155.5,142C 157.931,143.729 157.597,145.229 154.5,146.5C 153.081,142.657 150.914,139.324 148,136.5C 147.1,137.77 145.934,138.77 144.5,139.5C 145.407,142.421 145.74,145.421 145.5,148.5C 145.672,149.492 145.338,150.158 144.5,150.5C 142.913,147.479 142.247,144.479 142.5,141.5C 142.33,140.178 142.663,139.011 143.5,138C 142.552,137.517 141.552,137.351 140.5,137.5C 140.5,136.167 140.5,134.833 140.5,133.5C 140.811,132.522 141.478,131.855 142.5,131.5C 143.914,132.624 145.414,133.624 147,134.5C 150.063,133.181 152.73,133.847 155,136.5C 157.188,135.553 159.522,135.553 162,136.5C 163.432,134.561 165.265,133.228 167.5,132.5 Z"/></g>
<g><path style="opacity:0.004" fill="#21bac3" d="M 126.5,141.5 C 127.833,142.167 127.833,142.167 126.5,141.5 Z"/></g>
<g><path style="opacity:0.996" fill="#0fb7dd" d="M 169.5,144.5 C 170.345,145.671 171.011,147.005 171.5,148.5C 171.719,149.675 171.386,150.675 170.5,151.5C 169.193,150.184 167.693,149.184 166,148.5C 162.194,149.016 158.528,150.016 155,151.5C 152.513,149.191 150.513,146.524 149,143.5C 148.243,145.315 147.41,146.981 146.5,148.5C 146.167,148.5 145.833,148.5 145.5,148.5C 145.74,145.421 145.407,142.421 144.5,139.5C 145.934,138.77 147.1,137.77 148,136.5C 150.914,139.324 153.081,142.657 154.5,146.5C 157.597,145.229 157.931,143.729 155.5,142C 158.371,141.922 161.205,142.422 164,143.5C 165.261,143.241 166.261,142.574 167,141.5C 167.5,142 168,142.5 168.5,143C 167.288,144.107 167.621,144.607 169.5,144.5 Z"/></g>
<g><path style="opacity:0.004" fill="#32aab9" d="M 62.5,142.5 C 62.8333,142.5 63.1667,142.5 63.5,142.5C 63.3147,143.17 62.9813,143.17 62.5,142.5 Z"/></g>
<g><path style="opacity:0.996" fill="#0fb6de" d="M 85.5,147.5 C 84.828,148.267 83.9947,148.934 83,149.5C 82.147,151.935 81.147,154.269 80,156.5C 78.7399,152.716 76.7399,149.383 74,146.5C 72.7308,147.905 72.2308,149.571 72.5,151.5C 71.5,151.167 70.8333,150.5 70.5,149.5C 70.0583,145.616 71.725,143.616 75.5,143.5C 76.7942,142.71 77.9609,141.71 79,140.5C 79.7504,141.126 80.5838,141.626 81.5,142C 81.8541,143.626 81.8541,145.459 81.5,147.5C 82.8333,147.5 84.1667,147.5 85.5,147.5 Z"/></g>
<g><path style="opacity:0.004" fill="#21bac3" d="M 122.5,142.5 C 123.833,143.167 123.833,143.167 122.5,142.5 Z"/></g>
<g><path style="opacity:0.996" fill="#1ab8d8" d="M 75.5,143.5 C 71.725,143.616 70.0583,145.616 70.5,149.5C 69.6618,149.158 69.3284,148.492 69.5,147.5C 69.6495,146.448 69.4828,145.448 69,144.5C 68.3333,143.167 67.6667,143.167 67,144.5C 66.2086,143.255 65.7086,141.922 65.5,140.5C 66.2373,135.683 68.904,134.35 73.5,136.5C 71.8287,138.51 71.162,140.843 71.5,143.5C 72.8333,143.5 74.1667,143.5 75.5,143.5 Z"/></g>
<g><path style="opacity:0.004" fill="#23b9be" d="M 102.5,144.5 C 103.833,145.167 103.833,145.167 102.5,144.5 Z"/></g>
<g><path style="opacity:0.004" fill="#21b8c2" d="M 180.5,144.5 C 181.833,145.167 181.833,145.167 180.5,144.5 Z"/></g>
<g><path style="opacity:0.996" fill="#0fb3e2" d="M 171.5,148.5 C 172.268,149.263 172.768,150.263 173,151.5C 173.333,150.833 173.667,150.167 174,149.5C 175.713,150.878 177.047,152.545 178,154.5C 178.671,153.748 179.504,153.414 180.5,153.5C 180.5,153.833 180.5,154.167 180.5,154.5C 179.861,155.097 179.528,155.93 179.5,157C 180.074,158.607 180.74,160.107 181.5,161.5C 179.833,161.5 178.167,161.5 176.5,161.5C 175.694,160.003 175.028,158.336 174.5,156.5C 172.064,154.738 169.398,153.404 166.5,152.5C 164.972,153.861 163.305,155.028 161.5,156C 162.654,156.914 162.487,157.747 161,158.5C 159.748,156.999 158.748,155.332 158,153.5C 156.513,154.253 156.346,155.086 157.5,156C 155.973,157.032 154.64,158.199 153.5,159.5C 152.508,159.328 151.842,159.662 151.5,160.5C 149.324,159.287 148.991,157.62 150.5,155.5C 149.302,155.06 148.135,154.727 147,154.5C 146.505,152.527 146.338,150.527 146.5,148.5C 147.41,146.981 148.243,145.315 149,143.5C 150.513,146.524 152.513,149.191 155,151.5C 158.528,150.016 162.194,149.016 166,148.5C 167.693,149.184 169.193,150.184 170.5,151.5C 171.386,150.675 171.719,149.675 171.5,148.5 Z"/></g>
<g><path style="opacity:0.347" fill="#32b0c6" d="M 63.5,137.5 C 64.1667,138.5 64.8333,139.5 65.5,140.5C 65.7086,141.922 66.2086,143.255 67,144.5C 67.6667,143.167 68.3333,143.167 69,144.5C 69.4828,145.448 69.6495,146.448 69.5,147.5C 68.596,148.209 68.2627,149.209 68.5,150.5C 67.6618,150.842 67.3284,151.508 67.5,152.5C 65.6214,152.607 65.2881,152.107 66.5,151C 64.3255,148.24 63.3255,145.407 63.5,142.5C 63.1667,141.167 62.8333,141.167 62.5,142.5C 61.6618,142.158 61.3284,141.492 61.5,140.5C 62.1667,140.5 62.5,140.167 62.5,139.5C 62.3284,138.508 62.6618,137.842 63.5,137.5 Z"/></g>
<g><path style="opacity:0.004" fill="#21b6bd" d="M 102.5,146.5 C 103.833,147.167 103.833,147.167 102.5,146.5 Z"/></g>
<g><path style="opacity:0.004" fill="#23babf" d="M 99.5,148.5 C 100.833,149.167 100.833,149.167 99.5,148.5 Z"/></g>
<g><path style="opacity:0.004" fill="#20b8c2" d="M 136.5,148.5 C 137.833,149.167 137.833,149.167 136.5,148.5 Z"/></g>
<g><path style="opacity:0.004" fill="#34b2ca" d="M 179.5,148.5 C 181.698,148.409 182.031,149.075 180.5,150.5C 180.167,150.5 179.833,150.5 179.5,150.5C 179.5,149.833 179.5,149.167 179.5,148.5 Z"/></g>
<g><path style="opacity:0.004" fill="#24bbbd" d="M 63.5,149.5 C 64.8333,150.167 64.8333,150.167 63.5,149.5 Z"/></g>
<g><path style="opacity:0.008" fill="#33afca" d="M 97.5,137.5 C 98.8333,137.5 99.5,138.167 99.5,139.5C 100.167,139.5 100.5,139.833 100.5,140.5C 100.5,140.833 100.5,141.167 100.5,141.5C 98.7243,146.185 96.3909,150.518 93.5,154.5C 93.1667,151.833 92.8333,151.833 92.5,154.5C 92.1667,154.5 91.8333,154.5 91.5,154.5C 91.5,153.833 91.5,153.167 91.5,152.5C 91.5789,150.334 92.2455,148.334 93.5,146.5C 91.9328,144.235 92.5995,142.901 95.5,142.5C 96.5375,141.07 97.2041,139.403 97.5,137.5 Z"/></g>
<g><path style="opacity:0.996" fill="#29b0d1" d="M 172.5,139.5 C 172.833,139.5 173.167,139.5 173.5,139.5C 173.461,140.756 173.961,141.756 175,142.5C 175.667,141.167 176.333,141.167 177,142.5C 178.122,144.407 178.955,146.407 179.5,148.5C 178.167,149.167 178.167,149.833 179.5,150.5C 179.833,151.833 180.167,151.833 180.5,150.5C 181.625,151.348 181.625,152.348 180.5,153.5C 179.504,153.414 178.671,153.748 178,154.5C 177.047,152.545 175.713,150.878 174,149.5C 173.667,150.167 173.333,150.833 173,151.5C 172.768,150.263 172.268,149.263 171.5,148.5C 171.011,147.005 170.345,145.671 169.5,144.5C 169.539,143.417 169.873,142.417 170.5,141.5C 166.308,134.527 166.975,133.86 172.5,139.5 Z"/></g>
<g><path style="opacity:0.004" fill="#21bac5" d="M 139.5,150.5 C 138.833,151.167 138.833,151.167 139.5,150.5 Z"/></g>
<g><path style="opacity:0.004" fill="#23b8bc" d="M 63.5,152.5 C 64.8333,153.167 64.8333,153.167 63.5,152.5 Z"/></g>
<g><path style="opacity:0.996" fill="#0eb4e3" d="M 85.5,147.5 C 87.5,148.167 88.8333,149.5 89.5,151.5C 88.2479,154.163 87.2479,156.83 86.5,159.5C 86.1667,159.5 85.8333,159.5 85.5,159.5C 85.2843,156.568 85.951,153.902 87.5,151.5C 87.1667,149.167 86.1667,148.833 84.5,150.5C 83.145,152.523 82.8117,154.523 83.5,156.5C 79.956,162.104 77.1227,161.104 75,153.5C 74.6174,154.056 74.1174,154.389 73.5,154.5C 72.8902,153.609 72.5569,152.609 72.5,151.5C 72.2308,149.571 72.7308,147.905 74,146.5C 76.7399,149.383 78.7399,152.716 80,156.5C 81.147,154.269 82.147,151.935 83,149.5C 83.9947,148.934 84.828,148.267 85.5,147.5 Z"/></g>
<g><path style="opacity:0.004" fill="#1eb2be" d="M 136.5,152.5 C 137.833,153.167 137.833,153.167 136.5,152.5 Z"/></g>
<g><path style="opacity:0.996" fill="#09b2ea" d="M 176.5,161.5 C 170.826,161.267 164.993,161.601 159,162.5C 157.716,161.428 157.383,160.095 158,158.5C 156.644,159.38 155.144,159.714 153.5,159.5C 154.64,158.199 155.973,157.032 157.5,156C 156.346,155.086 156.513,154.253 158,153.5C 158.748,155.332 159.748,156.999 161,158.5C 162.487,157.747 162.654,156.914 161.5,156C 163.305,155.028 164.972,153.861 166.5,152.5C 169.398,153.404 172.064,154.738 174.5,156.5C 175.028,158.336 175.694,160.003 176.5,161.5 Z"/></g>
<g><path style="opacity:0.004" fill="#20b8c5" d="M 139.5,153.5 C 140.833,154.167 140.833,154.167 139.5,153.5 Z"/></g>
<g><path style="opacity:0.992" fill="#33aad1" d="M 89.5,151.5 C 90.1667,151.833 90.8333,152.167 91.5,152.5C 91.5,153.167 91.5,153.833 91.5,154.5C 91.5,155.167 91.5,155.833 91.5,156.5C 90.6618,156.842 90.3284,157.508 90.5,158.5C 89.1667,159.167 89.1667,159.833 90.5,160.5C 90.3404,162.153 89.6737,163.486 88.5,164.5C 88.6716,163.508 88.3382,162.842 87.5,162.5C 86.8902,161.609 86.5569,160.609 86.5,159.5C 87.2479,156.83 88.2479,154.163 89.5,151.5 Z"/></g>
<g><path style="opacity:0.006" fill="#36aecc" d="M 92.5,154.5 C 92.8333,154.5 93.1667,154.5 93.5,154.5C 93.6716,155.492 93.3382,156.158 92.5,156.5C 92.5,155.833 92.5,155.167 92.5,154.5 Z"/></g>
<g><path style="opacity:0.996" fill="#10b1e8" d="M 85.5,159.5 C 82.8269,159.684 82.1602,160.851 83.5,163C 81.8288,164.843 80.8288,167.009 80.5,169.5C 78.7673,168.992 78.434,168.159 79.5,167C 76.5671,163.3 74.5671,159.134 73.5,154.5C 74.1174,154.389 74.6174,154.056 75,153.5C 77.1227,161.104 79.956,162.104 83.5,156.5C 82.8117,154.523 83.145,152.523 84.5,150.5C 86.1667,148.833 87.1667,149.167 87.5,151.5C 85.951,153.902 85.2843,156.568 85.5,159.5 Z"/></g>
<g><path style="opacity:0.004" fill="#25b5cf" d="M 184.5,155.5 C 185.833,156.167 185.833,156.167 184.5,155.5 Z"/></g>
<g><path style="opacity:0.008" fill="#39acd1" d="M 143.5,155.5 C 143.833,155.5 144.167,155.5 144.5,155.5C 144.5,156.167 144.5,156.833 144.5,157.5C 143.662,157.158 143.328,156.492 143.5,155.5 Z"/></g>
<g><path style="opacity:0.004" fill="#1ca9b8" d="M 188.5,156.5 C 189.833,157.167 189.833,157.167 188.5,156.5 Z"/></g>
<g><path style="opacity:0.008" fill="#36afcd" d="M 91.5,156.5 C 91.8333,156.5 92.1667,156.5 92.5,156.5C 92.6716,157.492 92.3382,158.158 91.5,158.5C 91.5,157.833 91.5,157.167 91.5,156.5 Z"/></g>
<g><path style="opacity:0.006" fill="#30adcb" d="M 90.5,158.5 C 90.8333,158.5 91.1667,158.5 91.5,158.5C 91.6716,159.492 91.3382,160.158 90.5,160.5C 90.5,159.833 90.5,159.167 90.5,158.5 Z"/></g>
<g><path style="opacity:0.004" fill="#1fb7c5" d="M 142.5,158.5 C 143.833,159.167 143.833,159.167 142.5,158.5 Z"/></g>
<g><path style="opacity:1" fill="#33a6d0" d="M 69.5,147.5 C 69.3284,148.492 69.6618,149.158 70.5,149.5C 70.8333,150.5 71.5,151.167 72.5,151.5C 72.5569,152.609 72.8902,153.609 73.5,154.5C 74.5671,159.134 76.5671,163.3 79.5,167C 78.434,168.159 78.7673,168.992 80.5,169.5C 82.7409,168.7 83.7409,167.034 83.5,164.5C 84.5,164.5 85.5,164.5 86.5,164.5C 86.5,164.833 86.5,165.167 86.5,165.5C 85.6618,165.842 85.3284,166.508 85.5,167.5C 84.1667,168.167 84.1667,168.833 85.5,169.5C 84.7474,173.708 82.4141,175.041 78.5,173.5C 74.0129,166.856 70.3462,159.856 67.5,152.5C 68.3382,152.158 68.6716,151.492 68.5,150.5C 68.2627,149.209 68.596,148.209 69.5,147.5 Z"/></g>
<g><path style="opacity:0.004" fill="#20b6c0" d="M 94.5,159.5 C 95.8333,160.167 95.8333,160.167 94.5,159.5 Z"/></g>
<g><path style="opacity:0.996" fill="#08b0eb" d="M 176.5,161.5 C 178.167,161.5 179.833,161.5 181.5,161.5C 182.89,162.899 183.89,164.566 184.5,166.5C 184.557,167.609 184.89,168.609 185.5,169.5C 182.221,170.492 178.888,170.659 175.5,170C 176.634,168.984 176.301,168.317 174.5,168C 169.833,167.667 165.167,167.333 160.5,167C 158.607,165.068 156.94,165.235 155.5,167.5C 154.143,165.164 152.81,162.83 151.5,160.5C 151.842,159.662 152.508,159.328 153.5,159.5C 155.144,159.714 156.644,159.38 158,158.5C 157.383,160.095 157.716,161.428 159,162.5C 164.993,161.601 170.826,161.267 176.5,161.5 Z"/></g>
<g><path style="opacity:0.004" fill="#2cb7d6" d="M 187.5,162.5 C 187.369,161.761 187.536,161.094 188,160.5C 188.692,161.437 188.525,162.103 187.5,162.5 Z"/></g>
<g><path style="opacity:0.004" fill="#1db5c9" d="M 189.5,161.5 C 190.833,162.167 190.833,162.167 189.5,161.5 Z"/></g>
<g><path style="opacity:0.004" fill="#1eb4c5" d="M 143.5,163.5 C 144.833,164.167 144.833,164.167 143.5,163.5 Z"/></g>
<g><path style="opacity:0.004" fill="#32a6d6" d="M 87.5,164.5 C 87.8333,164.5 88.1667,164.5 88.5,164.5C 88.3147,165.17 87.9813,165.17 87.5,164.5 Z"/></g>
<g><path style="opacity:0.008" fill="#2badd6" d="M 147.5,163.5 C 147.833,163.5 148.167,163.5 148.5,163.5C 148.5,164.167 148.5,164.833 148.5,165.5C 147.662,165.158 147.328,164.492 147.5,163.5 Z"/></g>
<g><path style="opacity:0.004" fill="#20b7c3" d="M 71.5,165.5 C 72.8333,166.167 72.8333,166.167 71.5,165.5 Z"/></g>
<g><path style="opacity:0.32" fill="#31a9d5" d="M 145.5,148.5 C 145.833,148.5 146.167,148.5 146.5,148.5C 146.338,150.527 146.505,152.527 147,154.5C 148.135,154.727 149.302,155.06 150.5,155.5C 148.991,157.62 149.324,159.287 151.5,160.5C 152.81,162.83 154.143,165.164 155.5,167.5C 155.157,169.483 155.824,170.817 157.5,171.5C 163.319,172.328 169.319,172.828 175.5,173C 168.654,173.172 161.987,173.672 155.5,174.5C 159.922,175.808 164.922,175.808 170.5,174.5C 170.833,174.5 171.167,174.5 171.5,174.5C 175.97,175.486 180.637,175.819 185.5,175.5C 185.833,175.5 186.167,175.5 186.5,175.5C 187.492,175.672 188.158,175.338 188.5,174.5C 188.833,174.5 189.167,174.5 189.5,174.5C 189.611,175.117 189.944,175.617 190.5,176C 178.171,176.5 165.838,176.667 153.5,176.5C 151.587,173.003 149.92,169.336 148.5,165.5C 149.833,164.833 149.833,164.167 148.5,163.5C 148.167,162.167 147.833,162.167 147.5,163.5C 145.755,161.967 144.755,159.967 144.5,157.5C 145.833,156.833 145.833,156.167 144.5,155.5C 144.5,154.833 144.167,154.5 143.5,154.5C 143.5,154.167 143.5,153.833 143.5,153.5C 143.5,153.167 143.5,152.833 143.5,152.5C 143.833,151.833 144.167,151.167 144.5,150.5C 145.338,150.158 145.672,149.492 145.5,148.5 Z"/></g>
<g><path style="opacity:0.651" fill="#36a9d8" d="M 180.5,154.5 C 181.397,155.598 182.23,155.598 183,154.5C 183,155.833 183,157.167 183,158.5C 183.667,159.833 184.333,159.833 185,158.5C 185.934,159.858 186.768,161.192 187.5,162.5C 187.461,163.583 187.127,164.583 186.5,165.5C 187.193,166.518 187.859,167.518 188.5,168.5C 186.938,168.267 185.605,167.6 184.5,166.5C 183.89,164.566 182.89,162.899 181.5,161.5C 180.74,160.107 180.074,158.607 179.5,157C 179.528,155.93 179.861,155.097 180.5,154.5 Z"/></g>
<g><path style="opacity:0.992" fill="#21a4e0" d="M 85.5,159.5 C 85.8333,159.5 86.1667,159.5 86.5,159.5C 86.5569,160.609 86.8902,161.609 87.5,162.5C 87.5,163.167 87.5,163.833 87.5,164.5C 87.1667,164.5 86.8333,164.5 86.5,164.5C 85.5,164.5 84.5,164.5 83.5,164.5C 83.7409,167.034 82.7409,168.7 80.5,169.5C 80.8288,167.009 81.8288,164.843 83.5,163C 82.1602,160.851 82.8269,159.684 85.5,159.5 Z"/></g>
<g><path style="opacity:0.008" fill="#35a8d6" d="M 86.5,165.5 C 86.8333,165.5 87.1667,165.5 87.5,165.5C 87.6716,166.492 87.3382,167.158 86.5,167.5C 86.5,166.833 86.5,166.167 86.5,165.5 Z"/></g>
<g><path style="opacity:0.004" fill="#1cb0c3" d="M 144.5,166.5 C 145.833,167.167 145.833,167.167 144.5,166.5 Z"/></g>
<g><path style="opacity:0.006" fill="#35acd8" d="M 85.5,167.5 C 85.8333,167.5 86.1667,167.5 86.5,167.5C 86.6716,168.492 86.3382,169.158 85.5,169.5C 85.5,168.833 85.5,168.167 85.5,167.5 Z"/></g>
<g><path style="opacity:0.996" fill="#0babee" d="M 185.5,169.5 C 186.404,170.209 186.737,171.209 186.5,172.5C 176.852,171.755 167.185,171.422 157.5,171.5C 155.824,170.817 155.157,169.483 155.5,167.5C 156.94,165.235 158.607,165.068 160.5,167C 165.167,167.333 169.833,167.667 174.5,168C 176.301,168.317 176.634,168.984 175.5,170C 178.888,170.659 182.221,170.492 185.5,169.5 Z"/></g>
<g><path style="opacity:0.004" fill="#1ab5d2" d="M 191.5,167.5 C 192.833,168.167 192.833,168.167 191.5,167.5 Z"/></g>
<g><path style="opacity:0.004" fill="#1eb7c8" d="M 75.5,172.5 C 76.8333,173.167 76.8333,173.167 75.5,172.5 Z"/></g>
<g><path style="opacity:0.984" fill="#32a3db" d="M 184.5,166.5 C 185.605,167.6 186.938,168.267 188.5,168.5C 189.117,168.389 189.617,168.056 190,167.5C 190.833,169.167 191.667,170.833 192.5,172.5C 191.218,172.088 190.218,172.754 189.5,174.5C 189.167,174.5 188.833,174.5 188.5,174.5C 187.508,174.328 186.842,174.662 186.5,175.5C 186.167,175.5 185.833,175.5 185.5,175.5C 181.03,174.514 176.363,174.181 171.5,174.5C 171.167,174.5 170.833,174.5 170.5,174.5C 165.5,174.5 160.5,174.5 155.5,174.5C 161.987,173.672 168.654,173.172 175.5,173C 169.319,172.828 163.319,172.328 157.5,171.5C 167.185,171.422 176.852,171.755 186.5,172.5C 186.737,171.209 186.404,170.209 185.5,169.5C 184.89,168.609 184.557,167.609 184.5,166.5 Z"/></g>
<g><path style="opacity:0.004" fill="#1ba7ba" d="M 72.5,174.5 C 73.8333,175.167 73.8333,175.167 72.5,174.5 Z"/></g>
<g><path style="opacity:0.004" fill="#16a4c2" d="M 183.5,179.5 C 184.833,180.167 184.833,180.167 183.5,179.5 Z"/></g>
</svg>
